<svg width="501" height="501" version="1.1" xmlns="http://www.w3.org/2000/svg" desc="Created with imagetracer.js version 1.2.6" ><path fill="rgb(255,165,0)" stroke="rgb(255,165,0)" stroke-width="1" opacity="1" d="M 1 1 L 500 1 L 500 501 L 1 501 L 1 1 Z M 138 147 L 138 208 L 131 205 L 120 203 L 110 203 L 109 204 L 98 205 Q 82 209 72 218 L 56 236 L 48 255 L 47 267 L 46 268 L 48 288 Q 52 303 61 314 L 79 329 L 98 337 L 109 339 L 120 339 L 135 336 Q 147 332 156 325 Q 167 316 174 304 L 180 289 L 182 278 L 182 147 L 138 147 Z M 424 167 L 413 173 Q 407 178 405 186 Q 403 200 409 207 Q 414 215 426 217 L 435 217 L 447 211 Q 453 206 455 197 L 455 188 L 450 177 Q 443 165 424 167 Z M 272 206 Q 260 208 252 214 L 248 217 L 248 210 L 248 209 L 204 209 L 204 334 L 248 334 L 248 266 L 251 259 Q 254 253 262 251 Q 274 249 280 254 L 286 264 Q 285 268 287 270 L 287 334 L 330 334 L 331 333 L 331 264 L 335 257 L 345 251 Q 355 249 361 253 Q 367 257 369 265 L 369 334 L 413 334 L 413 250 Q 410 235 403 225 Q 393 210 373 206 Q 355 204 345 209 Q 330 215 322 226 L 318 222 Q 310 211 295 207 L 291 206 L 272 206 Z " /><path fill="rgb(255,165,0)" stroke="rgb(255,165,0)" stroke-width="1" opacity="1" d="M 108.5 244 L 123.5 245 Q 131.3 248.3 136 254.5 Q 143.2 261.3 141 277.5 Q 138.3 287.8 130.5 293 Q 124 300 108.5 298 Q 97.6 295.4 92 287.5 L 87 276.5 L 87 265.5 Q 89.6 254.6 97.5 249 L 108.5 244 Z " /><path fill="rgb(255,231,188)" stroke="rgb(255,231,188)" stroke-width="1" opacity="1" d="M 1.5 0 L 501 0.5 L 1.5 1 L 1.5 0 Z " /><path fill="rgb(255,231,188)" stroke="rgb(255,231,188)" stroke-width="1" opacity="1" d="M 274.5 206 L 277 206.5 L 274.5 207 L 274.5 206 Z " /><path fill="rgb(255,231,188)" stroke="rgb(255,231,188)" stroke-width="1" opacity="1" d="M 285.5 206 L 288 206.5 L 285.5 207 L 285.5 206 Z " /><path fill="rgb(255,231,188)" stroke="rgb(255,231,188)" stroke-width="1" opacity="1" d="M 357.5 206 L 360 206.5 L 357.5 207 L 357.5 206 Z " /><path fill="rgb(255,231,188)" stroke="rgb(255,231,188)" stroke-width="1" opacity="1" d="M 367.5 206 L 370 206.5 L 367.5 207 L 367.5 206 Z " /><path fill="rgb(255,231,188)" stroke="rgb(255,231,188)" stroke-width="1" opacity="1" d="M 204.5 209 L 247 209.5 L 204.5 210 L 204.5 209 Z " /><path fill="rgb(255,231,188)" stroke="rgb(255,231,188)" stroke-width="1" opacity="1" d="M 393.5 215 L 394.5 217 L 393.5 215 Z " /><path fill="rgb(255,231,188)" stroke="rgb(255,231,188)" stroke-width="1" opacity="1" d="M 328.5 219 L 321.5 227 L 328.5 219 Z " /><path fill="rgb(255,231,188)" stroke="rgb(255,231,188)" stroke-width="1" opacity="1" d="M 412.5 253 L 413 257.5 L 412 257.5 L 412.5 253 Z " /><path fill="rgb(255,231,188)" stroke="rgb(255,231,188)" stroke-width="1" opacity="1" d="M 204.5 333 L 247 333.5 L 204.5 334 L 204.5 333 Z " /><path fill="rgb(255,231,188)" stroke="rgb(255,231,188)" stroke-width="1" opacity="1" d="M 287.5 333 L 330 333.5 L 287.5 334 L 287.5 333 Z " /><path fill="rgb(255,231,188)" stroke="rgb(255,231,188)" stroke-width="1" opacity="1" d="M 370.5 333 L 413 333.5 L 370.5 334 L 370.5 333 Z " /><path fill="rgb(255,206,118)" stroke="rgb(255,206,118)" stroke-width="1" opacity="1" d="M 500.5 1 L 501 500.5 L 500 500.5 L 500.5 1 Z " /><path fill="rgb(255,206,118)" stroke="rgb(255,206,118)" stroke-width="1" opacity="1" d="M 312.5 216 L 313.5 218 L 312.5 216 Z " /><path fill="rgb(255,206,118)" stroke="rgb(255,206,118)" stroke-width="1" opacity="1" d="M 330.5 217 L 329.5 219 L 330.5 217 Z " /><path fill="rgb(255,206,118)" stroke="rgb(255,206,118)" stroke-width="1" opacity="1" d="M 316.5 220 L 317.5 222 L 316.5 220 Z " /><path fill="rgb(255,206,118)" stroke="rgb(255,206,118)" stroke-width="1" opacity="1" d="M 362.5 254 L 364.5 257 L 362.5 254 Z " /><path fill="rgb(255,206,118)" stroke="rgb(255,206,118)" stroke-width="1" opacity="1" d="M 253.5 255 L 252.5 257 L 253.5 255 Z " /><path fill="rgb(255,206,118)" stroke="rgb(255,206,118)" stroke-width="1" opacity="1" d="M 286.5 266 L 287 268.5 L 286 268.5 L 286.5 266 Z " /><path fill="rgb(255,206,118)" stroke="rgb(255,206,118)" stroke-width="1" opacity="1" d="M 330.5 267 L 331 332.5 L 330 332.5 L 330.5 267 Z " /><path fill="rgb(255,254,254)" stroke="rgb(255,254,254)" stroke-width="1" opacity="1" d="M 277.5 206 Q 306.9 206.1 319 223.5 L 321.5 227 Q 329.9 215.9 343.5 210 L 353.5 207 L 366.5 206 L 384.5 210 L 400 221.5 Q 408.8 231.7 412 247.5 L 412 257.5 L 413 258.5 L 413 333 L 370 333 L 370 266.5 Q 368.3 257.3 361.5 253 L 353.5 250 L 346.5 250 Q 337.3 251.8 333 258.5 L 330 265.5 L 330 333 L 287 333 L 287 264.5 L 282 255 L 271.5 250 L 263.5 250 Q 255 251.5 251 257.5 L 247 267.5 L 247 333 L 204 333 L 204 210 L 246.5 210 L 247 210.5 L 247 217.5 L 248.5 217 L 262.5 209 L 277.5 206 Z " /><path fill="rgb(255,210,127)" stroke="rgb(255,210,127)" stroke-width="1" opacity="1" d="M 0.5 1 L 1 500.5 L 0 500.5 L 0.5 1 Z " /><path fill="rgb(255,210,127)" stroke="rgb(255,210,127)" stroke-width="1" opacity="1" d="M 247.5 210 L 248 216.5 L 247 216.5 L 247.5 210 Z " /><path fill="rgb(255,210,127)" stroke="rgb(255,210,127)" stroke-width="1" opacity="1" d="M 314.5 218 L 315.5 220 L 314.5 218 Z " /><path fill="rgb(255,210,127)" stroke="rgb(255,210,127)" stroke-width="1" opacity="1" d="M 265.5 250 L 270 250.5 L 265.5 251 L 265.5 250 Z " /><path fill="rgb(255,210,127)" stroke="rgb(255,210,127)" stroke-width="1" opacity="1" d="M 347.5 250 L 352 250.5 L 347.5 251 L 347.5 250 Z " /><path fill="rgb(255,210,127)" stroke="rgb(255,210,127)" stroke-width="1" opacity="1" d="M 369.5 268 L 370 332.5 L 369 332.5 L 369.5 268 Z " /><path fill="rgb(255,210,127)" stroke="rgb(255,210,127)" stroke-width="1" opacity="1" d="M 247.5 269 L 248 332.5 L 247 332.5 L 247.5 269 Z " /><path fill="rgb(255,254,0)" stroke="rgb(255,254,0)" stroke-width="1" opacity="1" d="M 138 147 L 182 147 L 182 277.5 L 180 288.5 L 174 303.5 Q 166.8 316.3 155.5 325 Q 146.7 332.2 134.5 336 L 119.5 339 L 108.5 339 L 97.5 337 L 78.5 329 L 61 313.5 Q 52.2 302.8 48 287.5 L 46 267.5 L 47 266.5 L 48 254.5 L 56 235.5 L 71.5 218 Q 82.2 209.2 97.5 205 L 108.5 204 L 109.5 203 L 119.5 203 L 130.5 205 L 137.5 208 L 138 147 Z M 109 244 L 98 249 Q 90 255 87 266 L 87 277 L 92 288 Q 98 295 109 298 Q 124 300 131 293 Q 138 288 141 278 Q 143 261 136 255 Q 131 248 124 245 L 109 244 Z " /><path fill="rgb(255,254,0)" stroke="rgb(255,254,0)" stroke-width="1" opacity="1" d="M 423.5 167 Q 443.3 165.2 450 176.5 L 455 187.5 L 455 196.5 Q 452.9 205.9 446.5 211 L 434.5 217 L 425.5 217 Q 414.4 214.6 409 206.5 Q 402.8 200.2 405 185.5 Q 407.3 177.8 412.5 173 L 423.5 167 Z " /></svg>