<svg width="400" height="400" version="1.1" xmlns="http://www.w3.org/2000/svg" desc="Created with imagetracer.js version 1.2.6" ><path fill="rgb(0,0,0)" stroke="rgb(0,0,0)" stroke-width="1" opacity="0" d="M 0 0 L 400 0 L 400 400 L 0 400 L 0 0 Z M 183 14 L 151 20 Q 127 27 108 38 L 83 55 L 56 79 L 54 79 L 37 102 L 24 127 L 17 147 L 13 169 L 13 212 L 14 213 L 14 222 L 15 223 L 17 242 L 21 259 Q 35 305 62 338 Q 72 350 87 357 L 100 363 L 112 366 L 136 381 L 153 387 L 179 392 L 205 392 L 221 389 Q 240 383 257 374 L 275 361 L 278 359 L 289 347 L 292 344 Q 308 341 321 333 L 336 322 Q 357 304 371 279 L 384 249 L 389 227 L 389 198 Q 387 196 388 191 L 383 169 L 374 141 Q 368 124 358 111 L 333 82 Q 317 64 297 50 L 256 28 L 232 19 L 215 15 Q 209 17 208 14 L 183 14 Z " /><path fill="rgb(0,0,0)" stroke="rgb(0,0,0)" stroke-width="1" opacity="0" d="M 181.5 39 L 208.5 39 L 209.5 40 L 224.5 41 L 243.5 45 L 262.5 51 L 286.5 61 L 316 78 L 346 117.5 L 357 137.5 L 366 165.5 L 368 193.5 L 363 216.5 Q 359 230.5 352 241.5 L 312 298.5 L 293.5 319 L 265.5 331 L 234.5 340 L 205.5 325 L 174.5 318 L 154.5 308 Q 124 292 101 268.5 Q 79.7 245.8 69 212.5 L 64 191.5 L 63 177.5 L 62 176.5 L 62 127.5 L 63 126.5 L 63 118.5 L 65 107.5 L 69 94.5 Q 73.4 82.9 82.5 76 L 99.5 63 L 110.5 58 L 150.5 45 L 181.5 39 Z " /><path fill="rgb(0,0,0)" stroke="rgb(0,0,0)" stroke-width="1" opacity="0.8549019607843137" d="M 226.5 19 L 229 19.5 L 226.5 20 L 226.5 19 Z " /><path fill="rgb(0,0,0)" stroke="rgb(0,0,0)" stroke-width="1" opacity="0.8549019607843137" d="M 190.5 20 L 207.5 20 L 208.5 21 L 221.5 22 L 258.5 33 L 258.5 32 L 239 23.5 L 240.5 23 Q 297.3 43.2 334 83.5 Q 354 103 368 128.5 L 374 142.5 L 382 170.5 L 380 171.5 L 381 168 Q 378.3 169.1 379 166.5 L 378 166.5 L 378 182.5 L 381 198.5 L 381 213.5 L 376 234.5 Q 369 251.5 358 264.5 L 350 281.5 Q 338.8 299.3 322.5 312 L 298 335.5 Q 297.3 337.8 299.5 337 L 299.5 338 Q 294.8 337.3 294 340.5 L 297.5 341 Q 309.4 337.9 318 331.5 L 316.5 331 Q 312.2 335.2 304.5 336 L 304.5 335 Q 334.6 324.1 353 301.5 Q 374.4 278.1 382 242 Q 385 243.3 384 239.5 L 385 239.5 Q 371.6 290.6 336.5 320 L 313.5 336 L 301.5 341 L 292.5 343 L 287 347.5 L 276.5 359 L 271.5 363 L 287.5 345 L 259.5 348 Q 239 361.5 209.5 366 L 209.5 365 Q 238.2 360.7 258 347.5 L 229.5 344 Q 219.7 349.7 205.5 351 L 205.5 350 Q 217.3 348.8 226 344.5 L 223 343.5 Q 225.8 340.8 232 341.5 L 229.5 340 L 218 338.5 L 223 337.5 L 215 331.5 L 216.5 332 L 236.5 341 L 285.5 324 L 294.5 319 L 304 309.5 L 308.5 304 L 305 308.5 L 301 313.5 L 302.5 314 Q 320.5 303.5 335 289.5 Q 349.6 274.6 358 253.5 L 365 229.5 L 366 217.5 L 367 216.5 L 367 206.5 L 366 204.5 L 368 198.5 L 368 174.5 L 363 150.5 L 351 124.5 Q 334.7 96.8 312.5 75 Q 282.6 54.9 243 44.5 L 245.5 44 L 270.5 52 L 272 51.5 L 271.5 53 L 275.5 54 L 277 53.5 L 276.5 55 L 306.5 70 L 302.5 65 L 291 59.5 L 292.5 60 L 295 59.5 Q 273.1 45.4 245.5 37 L 222.5 33 L 198.5 32 L 197.5 31 L 155.5 31 L 134.5 36 L 118.5 44 L 95 61.5 L 97.5 62 L 112.5 54 L 125.5 49 L 125.5 50 L 124 50.5 L 126.5 51 L 143.5 45 L 150.5 41 L 158.5 39 L 175.5 37 L 176.5 36 L 183.5 36 L 184.5 35 L 205.5 34 L 206.5 35 L 218.5 35 L 219.5 36 L 234.5 37 L 242.5 39 L 248 42.5 L 246.5 43 L 242.5 41 L 223.5 37 L 201.5 37 L 200.5 38 L 186.5 38 L 185.5 39 L 167.5 40 L 144.5 46 L 108.5 58 Q 88.6 67.1 75 82.5 L 71.5 88 L 68 90.5 Q 51.7 112.7 43.5 143 L 43 140.5 L 56 106.5 L 55 106.5 Q 43 127.5 38 155.5 L 39 155.5 L 42.5 144 L 43 146.5 L 36 168.5 L 34 178.5 L 34 189.5 L 32.5 198 L 32 190.5 L 33 189.5 L 34 167.5 L 40 140.5 Q 49.2 108.2 67 84.5 L 62 88.5 L 52.5 102 L 53 100.5 L 66 80.5 L 56 89.5 L 43 112.5 L 32 147.5 L 25 180.5 L 24 210.5 L 25 211.5 L 25 221.5 L 26 222.5 L 27 236.5 L 32 256 Q 28.3 254.7 30 260.5 L 34 276.5 L 49 308.5 L 48 308.5 Q 34 289 28 261.5 L 19 210.5 L 19 186.5 L 20 185.5 L 23 157.5 L 28 138.5 L 33 125.5 L 47 100.5 L 50 91.5 L 55 84.5 L 53.5 84 L 39 102.5 L 22 137.5 L 17 156.5 L 15 181.5 L 14 182.5 L 13.5 198 L 13 179.5 L 14 178.5 L 14 166.5 L 15 165.5 L 16 153.5 L 24 128.5 L 36 104.5 L 56 78 L 93.5 48 L 90.5 52 L 84 57.5 L 85.5 58 L 110.5 41 L 126.5 33 L 146.5 27 L 175.5 22 L 181.5 22 L 182.5 21 L 189.5 21 L 190.5 20 Z M 196 21 L 195 22 L 186 23 L 212 24 L 222 26 L 256 37 L 272 44 L 273 44 Q 260 35 245 30 L 219 23 L 196 21 Z M 180 23 L 180 24 L 186 24 L 180 23 Z M 173 24 L 173 25 L 176 25 L 173 24 Z M 198 28 L 198 29 L 206 29 L 198 28 Z M 79 63 L 78 65 L 80 64 L 79 63 Z M 76 65 L 66 74 L 67 75 L 77 66 L 76 65 Z M 70 80 L 67 84 L 70 82 L 70 80 Z M 336 96 L 335 98 L 348 116 L 360 139 L 367 161 L 369 179 L 370 179 L 370 161 L 364 139 Q 354 113 336 96 Z M 374 180 L 371 190 L 368 224 L 365 236 L 366 240 L 370 224 L 375 197 L 375 183 L 374 180 Z M 379 202 L 377 204 L 374 227 L 370 239 L 371 240 L 375 233 L 379 219 L 379 202 Z M 310 314 L 291 325 L 275 338 L 274 340 L 287 339 L 294 336 L 313 316 Q 314 312 310 314 Z M 286 325 L 244 340 L 246 341 L 255 342 L 249 342 Q 246 344 249 345 L 262 345 L 266 343 L 287 326 L 286 325 Z " /><path fill="rgb(0,0,0)" stroke="rgb(0,0,0)" stroke-width="1" opacity="0.8549019607843137" d="M 205.5 38 L 214 38.5 L 205.5 39 L 205.5 38 Z " /><path fill="rgb(0,0,0)" stroke="rgb(0,0,0)" stroke-width="1" opacity="0.8549019607843137" d="M 107.5 39 L 106.5 41 L 107.5 39 Z " /><path fill="rgb(0,0,0)" stroke="rgb(0,0,0)" stroke-width="1" opacity="0.8549019607843137" d="M 217.5 39 L 222 39.5 L 217.5 40 L 217.5 39 Z " /><path fill="rgb(0,0,0)" stroke="rgb(0,0,0)" stroke-width="1" opacity="0.8549019607843137" d="M 224.5 40 L 234 41.5 L 229.5 42 L 224.5 41 L 224.5 40 Z " /><path fill="rgb(0,0,0)" stroke="rgb(0,0,0)" stroke-width="1" opacity="0.8549019607843137" d="M 104.5 41 L 103.5 43 L 104.5 41 Z " /><path fill="rgb(0,0,0)" stroke="rgb(0,0,0)" stroke-width="1" opacity="0.8549019607843137" d="M 235.5 42 L 238 42.5 L 235.5 43 L 235.5 42 Z " /><path fill="rgb(0,0,0)" stroke="rgb(0,0,0)" stroke-width="1" opacity="0.8549019607843137" d="M 239.5 43 L 242 43.5 L 239.5 44 L 239.5 43 Z " /><path fill="rgb(0,0,0)" stroke="rgb(0,0,0)" stroke-width="1" opacity="0.8549019607843137" d="M 99.5 44 L 98.5 46 L 99.5 44 Z " /><path fill="rgb(0,0,0)" stroke="rgb(0,0,0)" stroke-width="1" opacity="0.8549019607843137" d="M 96.5 46 L 95.5 48 L 96.5 46 Z " /><path fill="rgb(0,0,0)" stroke="rgb(0,0,0)" stroke-width="1" opacity="0.8549019607843137" d="M 382.5 172 L 383 174.5 L 382 174.5 L 382.5 172 Z " /><path fill="rgb(0,0,0)" stroke="rgb(0,0,0)" stroke-width="1" opacity="0.8549019607843137" d="M 384.5 179 L 385 181.5 L 384 181.5 L 384.5 179 Z " /><path fill="rgb(0,0,0)" stroke="rgb(0,0,0)" stroke-width="1" opacity="0.8549019607843137" d="M 385.5 184 L 386 187.5 L 385 187.5 L 385.5 184 Z " /><path fill="rgb(0,0,0)" stroke="rgb(0,0,0)" stroke-width="1" opacity="0.8549019607843137" d="M 386.5 189 L 387 192.5 L 386 192.5 L 386.5 189 Z " /><path fill="rgb(0,0,0)" stroke="rgb(0,0,0)" stroke-width="1" opacity="0.8549019607843137" d="M 387.5 196 L 388 201.5 L 387 201.5 L 387.5 196 Z " /><path fill="rgb(0,0,0)" stroke="rgb(0,0,0)" stroke-width="1" opacity="0.8549019607843137" d="M 33.5 200 L 34 211.5 L 33 211.5 L 33.5 200 Z " /><path fill="rgb(0,0,0)" stroke="rgb(0,0,0)" stroke-width="1" opacity="0.8549019607843137" d="M 14.5 201 L 15 213.5 L 14 213.5 L 14.5 201 Z " /><path fill="rgb(0,0,0)" stroke="rgb(0,0,0)" stroke-width="1" opacity="0.8549019607843137" d="M 388.5 211 L 389 213.5 L 388 213.5 L 388.5 211 Z " /><path fill="rgb(0,0,0)" stroke="rgb(0,0,0)" stroke-width="1" opacity="0.8549019607843137" d="M 15.5 215 L 16 222.5 L 15 222.5 L 15.5 215 Z " /><path fill="rgb(0,0,0)" stroke="rgb(0,0,0)" stroke-width="1" opacity="0.8549019607843137" d="M 34.5 215 L 35 220.5 L 34 220.5 L 34.5 215 Z " /><path fill="rgb(0,0,0)" stroke="rgb(0,0,0)" stroke-width="1" opacity="0.8549019607843137" d="M 387.5 223 L 388 227.5 L 387 227.5 L 387.5 223 Z " /><path fill="rgb(0,0,0)" stroke="rgb(0,0,0)" stroke-width="1" opacity="0.8549019607843137" d="M 16.5 224 L 18 236.5 L 23 257.5 L 39 296.5 Q 51.9 325.6 73.5 346 L 84.5 353 L 104.5 361 L 107.5 361 L 117.5 366 L 137.5 370 L 148.5 370 L 148.5 369 L 145.5 369 L 134 364.5 L 135.5 364 L 151.5 369 L 176.5 370 L 177.5 369 L 194.5 368 L 194.5 369 L 177.5 370 L 176.5 371 L 134.5 371 L 133.5 370 L 121.5 369 L 123.5 372 L 137 379.5 L 135.5 380 L 110.5 365 Q 95.6 361.9 84.5 355 Q 72 348 63 337.5 Q 42.9 313.6 30 282.5 L 19 247.5 L 16 230.5 L 16.5 224 Z " /><path fill="rgb(0,0,0)" stroke="rgb(0,0,0)" stroke-width="1" opacity="0.8549019607843137" d="M 35.5 224 L 36 227.5 L 35 227.5 L 35.5 224 Z " /><path fill="rgb(0,0,0)" stroke="rgb(0,0,0)" stroke-width="1" opacity="0.8549019607843137" d="M 36.5 229 L 37 232.5 L 36 232.5 L 36.5 229 Z " /><path fill="rgb(0,0,0)" stroke="rgb(0,0,0)" stroke-width="1" opacity="0.8549019607843137" d="M 386.5 230 L 387 233.5 L 386 233.5 L 386.5 230 Z " /><path fill="rgb(0,0,0)" stroke="rgb(0,0,0)" stroke-width="1" opacity="0.8549019607843137" d="M 37.5 235 L 38 237.5 L 37 237.5 L 37.5 235 Z " /><path fill="rgb(0,0,0)" stroke="rgb(0,0,0)" stroke-width="1" opacity="0.8549019607843137" d="M 385.5 235 L 386 237.5 L 385 237.5 L 385.5 235 Z " /><path fill="rgb(0,0,0)" stroke="rgb(0,0,0)" stroke-width="1" opacity="0.8549019607843137" d="M 38.5 239 L 39 241.5 L 38 241.5 L 38.5 239 Z " /><path fill="rgb(0,0,0)" stroke="rgb(0,0,0)" stroke-width="1" opacity="0.8549019607843137" d="M 39.5 243 L 40 245.5 L 39 245.5 L 39.5 243 Z " /><path fill="rgb(0,0,0)" stroke="rgb(0,0,0)" stroke-width="1" opacity="0.8549019607843137" d="M 40.5 247 Q 57.3 303.7 95.5 339 Q 111.5 354 133 363.5 L 131.5 364 Q 100.3 348.7 79 323.5 Q 64.6 305.9 54 284.5 L 45 264.5 L 40 249.5 L 40.5 247 Z " /><path fill="rgb(0,0,0)" stroke="rgb(0,0,0)" stroke-width="1" opacity="0.8549019607843137" d="M 314.5 296 L 313.5 298 L 314.5 296 Z " /><path fill="rgb(0,0,0)" stroke="rgb(0,0,0)" stroke-width="1" opacity="0.8549019607843137" d="M 311.5 300 L 310.5 302 L 311.5 300 Z " /><path fill="rgb(0,0,0)" stroke="rgb(0,0,0)" stroke-width="1" opacity="0.8549019607843137" d="M 152.5 307 L 153.5 309 L 152.5 307 Z " /><path fill="rgb(0,0,0)" stroke="rgb(0,0,0)" stroke-width="1" opacity="0.8549019607843137" d="M 155.5 309 L 158 310.5 L 156.5 310 L 155.5 309 Z " /><path fill="rgb(0,0,0)" stroke="rgb(0,0,0)" stroke-width="1" opacity="0.8549019607843137" d="M 159.5 311 L 172.5 318 L 179 319.5 L 177 320.5 L 178.5 323 Q 171 316.5 160.5 313 L 159.5 311 Z " /><path fill="rgb(0,0,0)" stroke="rgb(0,0,0)" stroke-width="1" opacity="0.8549019607843137" d="M 180.5 320 L 183 320.5 L 180.5 321 L 180.5 320 Z " /><path fill="rgb(0,0,0)" stroke="rgb(0,0,0)" stroke-width="1" opacity="0.8549019607843137" d="M 269.5 363 L 267.5 366 L 269.5 363 Z " /><path fill="rgb(0,0,0)" stroke="rgb(0,0,0)" stroke-width="1" opacity="0.8549019607843137" d="M 203.5 366 L 208 366.5 L 203.5 367 L 203.5 366 Z " /><path fill="rgb(0,0,0)" stroke="rgb(0,0,0)" stroke-width="1" opacity="0.8549019607843137" d="M 265.5 366 L 264.5 368 L 265.5 366 Z " /><path fill="rgb(0,0,0)" stroke="rgb(0,0,0)" stroke-width="1" opacity="0.8549019607843137" d="M 196.5 367 L 202 367.5 L 196.5 368 L 196.5 367 Z " /><path fill="rgb(0,0,0)" stroke="rgb(0,0,0)" stroke-width="1" opacity="0.615686274509804" d="M 192.5 14 L 210.5 15 L 213.5 17 L 216.5 16 L 219.5 18 L 221.5 17 Q 223 20.5 224.5 18 Q 227.1 17.3 226 20 L 228.5 20 L 230 19.5 Q 229.3 21.8 231.5 21 L 233 20.5 Q 232.3 22.8 234.5 22 L 236 21.5 Q 235.3 23.8 237.5 23 L 239 22.5 Q 238.3 24.8 240.5 24 L 242 23.5 L 241.5 25 L 244.5 24 L 244.5 26 L 246.5 25 L 246.5 27 L 249.5 26 L 249.5 28 L 251.5 27 L 251.5 29 L 261 33.5 L 259.5 34 Q 242 26.5 221.5 22 L 208.5 21 L 207.5 20 L 193 19.5 L 211 18.5 L 204.5 17 L 178.5 17 L 145.5 24 L 125 32.5 L 125.5 34 L 123.5 33 L 123.5 35 L 121.5 34 L 121.5 36 L 119.5 37 L 117.5 36 L 117.5 38 L 115.5 37 L 115.5 39 L 113.5 38 L 113.5 40 L 112 39.5 L 111.5 41 L 110 40.5 L 108.5 43 L 84.5 58 L 89 52.5 L 88.5 51 L 90.5 52 L 91.5 49 Q 92.8 51.3 94 48.5 L 95.5 46 L 97 46.5 L 97.5 45 Q 98.7 47.3 100 44.5 L 100.5 43 L 102 43.5 L 103.5 41 L 105 41.5 L 105.5 40 Q 107 42.5 108.5 39 Q 110.8 39.8 110 37.5 L 112 37.5 L 112.5 36 L 114 36.5 Q 113.3 34.3 115.5 35 L 120.5 32 L 122 32.5 Q 121.3 30.3 123.5 31 L 127.5 29 L 161.5 18 L 178.5 15 L 191.5 15 L 192.5 14 Z " /><path fill="rgb(0,0,0)" stroke="rgb(0,0,0)" stroke-width="1" opacity="0.615686274509804" d="M 184.5 20 L 190 20.5 L 184.5 21 L 184.5 20 Z " /><path fill="rgb(0,0,0)" stroke="rgb(0,0,0)" stroke-width="1" opacity="0.615686274509804" d="M 178.5 21 L 182 21.5 L 178.5 22 L 178.5 21 Z " /><path fill="rgb(0,0,0)" stroke="rgb(0,0,0)" stroke-width="1" opacity="0.615686274509804" d="M 195.5 21 L 218.5 23 L 244.5 30 Q 260.3 35.3 273 43.5 L 271.5 44 L 255.5 37 L 221.5 26 L 211.5 24 L 201.5 24 L 200.5 23 L 186.5 23 Q 185 25.5 179.5 24 L 179.5 23 L 194.5 22 L 195.5 21 Z " /><path fill="rgb(0,0,0)" stroke="rgb(0,0,0)" stroke-width="1" opacity="0.615686274509804" d="M 172.5 22 L 175 22.5 L 172.5 23 L 172.5 22 Z " /><path fill="rgb(0,0,0)" stroke="rgb(0,0,0)" stroke-width="1" opacity="0.615686274509804" d="M 166.5 23 L 169 23.5 L 166.5 24 L 166.5 23 Z " /><path fill="rgb(0,0,0)" stroke="rgb(0,0,0)" stroke-width="1" opacity="0.615686274509804" d="M 159.5 24 L 162 24.5 L 159.5 25 L 159.5 24 Z " /><path fill="rgb(0,0,0)" stroke="rgb(0,0,0)" stroke-width="1" opacity="0.615686274509804" d="M 172.5 24 L 176 24.5 L 172.5 25 L 172.5 24 Z " /><path fill="rgb(0,0,0)" stroke="rgb(0,0,0)" stroke-width="1" opacity="0.615686274509804" d="M 148.5 26 L 151 26.5 L 148.5 27 L 148.5 26 Z " /><path fill="rgb(0,0,0)" stroke="rgb(0,0,0)" stroke-width="1" opacity="0.615686274509804" d="M 197.5 28 L 206 28.5 L 197.5 29 L 197.5 28 Z " /><path fill="rgb(0,0,0)" stroke="rgb(0,0,0)" stroke-width="1" opacity="0.615686274509804" d="M 155.5 31 L 161 31.5 L 155.5 32 L 155.5 31 Z " /><path fill="rgb(0,0,0)" stroke="rgb(0,0,0)" stroke-width="1" opacity="0.615686274509804" d="M 188.5 31 L 198 31.5 L 188.5 32 L 188.5 31 Z " /><path fill="rgb(0,0,0)" stroke="rgb(0,0,0)" stroke-width="1" opacity="0.615686274509804" d="M 148.5 32 L 151 32.5 L 148.5 33 L 148.5 32 Z " /><path fill="rgb(0,0,0)" stroke="rgb(0,0,0)" stroke-width="1" opacity="0.615686274509804" d="M 206.5 32 L 212 32.5 L 206.5 33 L 206.5 32 Z " /><path fill="rgb(0,0,0)" stroke="rgb(0,0,0)" stroke-width="1" opacity="0.615686274509804" d="M 217.5 33 L 223 33.5 L 217.5 34 L 217.5 33 Z " /><path fill="rgb(0,0,0)" stroke="rgb(0,0,0)" stroke-width="1" opacity="0.615686274509804" d="M 189.5 34 L 197 34.5 L 189.5 35 L 189.5 34 Z " /><path fill="rgb(0,0,0)" stroke="rgb(0,0,0)" stroke-width="1" opacity="0.615686274509804" d="M 206.5 34 L 214 34.5 L 206.5 35 L 206.5 34 Z " /><path fill="rgb(0,0,0)" stroke="rgb(0,0,0)" stroke-width="1" opacity="0.615686274509804" d="M 225.5 34 L 235.5 35 L 256.5 40 L 291.5 57 L 298 61.5 L 297.5 63 Q 305.4 65.1 309 71.5 L 306.5 70 L 304.5 71 L 304.5 69 L 302.5 68 L 301 68.5 L 301.5 67 L 299.5 68 L 299.5 66 L 297.5 67 L 297.5 65 L 282.5 58 L 281 58.5 L 281.5 57 L 279.5 58 L 279.5 56 Q 266.9 49.1 250.5 46 L 249 46.5 L 249.5 45 L 245.5 46 L 245.5 44 L 242.5 45 L 242 43 L 237.5 44 L 237.5 42 L 233.5 43 L 233.5 41 L 228.5 42 L 228.5 40 L 222 41 Q 223.3 37.3 217.5 39 L 214 40 L 213.5 38 L 205.5 38 L 204.5 39 L 186.5 39 L 186.5 38 L 223.5 37 L 247.5 43 L 246.5 41 L 234.5 37 L 219 35.5 L 225.5 34 Z M 293 60 L 293 61 L 295 61 L 293 60 Z " /><path fill="rgb(0,0,0)" stroke="rgb(0,0,0)" stroke-width="1" opacity="0.615686274509804" d="M 173.5 35 L 184 35.5 L 169.5 37 L 150.5 41 Q 139.5 48 124.5 51 L 121.5 50 L 94.5 63 L 98.5 58 L 118.5 44 L 121.5 45 L 142.5 39 L 161.5 37 L 162.5 36 L 172.5 36 L 173.5 35 Z " /><path fill="rgb(0,0,0)" stroke="rgb(0,0,0)" stroke-width="1" opacity="0.615686274509804" d="M 84.5 54 L 83.5 56 L 84.5 54 Z " /><path fill="rgb(0,0,0)" stroke="rgb(0,0,0)" stroke-width="1" opacity="0.615686274509804" d="M 310.5 61 L 311.5 63 L 310.5 61 Z " /><path fill="rgb(0,0,0)" stroke="rgb(0,0,0)" stroke-width="1" opacity="0.615686274509804" d="M 78.5 63 L 80 63.5 L 66.5 75 L 66 73.5 L 78.5 63 Z " /><path fill="rgb(0,0,0)" stroke="rgb(0,0,0)" stroke-width="1" opacity="0.615686274509804" d="M 71.5 65 L 69.5 68 L 71.5 65 Z " /><path fill="rgb(0,0,0)" stroke="rgb(0,0,0)" stroke-width="1" opacity="0.615686274509804" d="M 316.5 66 L 317.5 68 L 316.5 66 Z " /><path fill="rgb(0,0,0)" stroke="rgb(0,0,0)" stroke-width="1" opacity="0.615686274509804" d="M 60.5 74 L 57.5 78 L 60.5 74 Z " /><path fill="rgb(0,0,0)" stroke="rgb(0,0,0)" stroke-width="1" opacity="0.615686274509804" d="M 83.5 74 L 81.5 77 L 83.5 74 Z " /><path fill="rgb(0,0,0)" stroke="rgb(0,0,0)" stroke-width="1" opacity="0.615686274509804" d="M 72.5 77 L 70 80.5 Q 59.5 93 52.5 109 L 51 108.5 L 52 110.5 L 50 110.5 L 51 112.5 L 48 113.5 L 33.5 146 L 33 144.5 L 47 103.5 Q 54.4 88.9 66.5 79 L 66 80.5 L 54 98.5 L 57 96.5 Q 63.1 85.1 72.5 77 Z " /><path fill="rgb(0,0,0)" stroke="rgb(0,0,0)" stroke-width="1" opacity="0.615686274509804" d="M 55.5 79 L 51.5 84 L 55.5 79 Z " /><path fill="rgb(0,0,0)" stroke="rgb(0,0,0)" stroke-width="1" opacity="0.615686274509804" d="M 53.5 84 L 55 84.5 L 50 91.5 L 49 96.5 L 42.5 107 Q 41.3 104.8 40 107.5 Q 27.8 122.8 21 143.5 L 18 157.5 L 18 177.5 Q 20.7 179.8 20 185.5 L 19 186.5 L 19 210.5 L 30 269.5 Q 36.2 292.3 48.5 309 L 49 306.5 L 34 276.5 L 30 256 Q 33 257.3 32 253.5 L 28 238.5 L 29 238.5 L 37 263.5 L 36 264.5 L 36 273.5 Q 38.4 286.6 45 295.5 L 63.5 317 L 72.5 324 L 78.5 326 L 78 324.5 L 66 306.5 L 69 306.5 L 68 308.5 L 71 309.5 L 70 311.5 L 73 312.5 L 72 314.5 L 75 315.5 L 75 317.5 L 76.5 320 Q 77.8 317.8 79 320.5 L 79 322.5 L 81.5 326 Q 83.2 323.2 85 327.5 L 84 328.5 L 91.5 336 L 92.5 335 L 96 338.5 Q 93.2 340.3 97.5 342 L 100.5 344 L 102 343.5 Q 99.8 344.8 102.5 346 L 105.5 348 L 107 347.5 L 106.5 349 L 108.5 350 L 110 349.5 Q 107.8 350.8 110.5 352 L 112.5 353 L 114 352.5 L 113.5 354 L 116 355.5 L 114.5 355 L 100 346 L 109 359 L 120 365.5 L 117.5 366 L 107.5 361 L 104.5 361 L 84.5 353 L 77.5 349 L 77.5 351 L 74.5 346 L 73 346.5 L 73.5 348 Q 70.8 346.8 73 345.5 L 65 337.5 Q 32.1 296.9 18.5 237 L 17.5 239 L 17 237.5 Q 19.3 236.2 18 231.5 L 17 231.5 L 16.5 233 L 16 231.5 Q 18.5 230 17 224.5 L 16 224.5 L 15.5 226 L 15 223.5 Q 17.8 221.8 16 215.5 L 15 215.5 L 14.5 217 L 14 214.5 L 15 213.5 L 15 201.5 L 14 201.5 L 13.5 203 L 13 198.5 L 14 197.5 L 15 172.5 L 16 171.5 L 16 164.5 L 17 163.5 L 17 156.5 L 19 146.5 L 28 123.5 L 45 93.5 L 43 93.5 Q 44.3 90.8 45.5 93 L 50 88.5 L 53.5 84 Z M 60 320 Q 61 330 67 336 Q 77 350 96 354 L 93 349 L 72 328 L 60 320 Z " /><path fill="rgb(0,0,0)" stroke="rgb(0,0,0)" stroke-width="1" opacity="0.615686274509804" d="M 70.5 88 L 72 88.5 Q 66.3 96.3 64.5 108 L 64 104.5 L 67 94.5 L 65 94.5 L 70.5 88 Z " /><path fill="rgb(0,0,0)" stroke="rgb(0,0,0)" stroke-width="1" opacity="0.615686274509804" d="M 338.5 88 L 339.5 90 L 338.5 88 Z " /><path fill="rgb(0,0,0)" stroke="rgb(0,0,0)" stroke-width="1" opacity="0.615686274509804" d="M 325.5 89 L 326.5 91 L 325.5 89 Z " /><path fill="rgb(0,0,0)" stroke="rgb(0,0,0)" stroke-width="1" opacity="0.615686274509804" d="M 332.5 93 Q 350.3 108.7 361 131.5 L 369 154.5 Q 367.8 159.3 370 160.5 L 370 178.5 L 369 178.5 L 367 160.5 L 360 138.5 Q 348.3 112.8 332.5 93 Z " /><path fill="rgb(0,0,0)" stroke="rgb(0,0,0)" stroke-width="1" opacity="0.615686274509804" d="M 329.5 94 L 330.5 96 L 329.5 94 Z " /><path fill="rgb(0,0,0)" stroke="rgb(0,0,0)" stroke-width="1" opacity="0.615686274509804" d="M 64.5 96 L 63.5 98 L 64.5 96 Z " /><path fill="rgb(0,0,0)" stroke="rgb(0,0,0)" stroke-width="1" opacity="0.615686274509804" d="M 346.5 97 L 347.5 99 L 346.5 97 Z " /><path fill="rgb(0,0,0)" stroke="rgb(0,0,0)" stroke-width="1" opacity="0.615686274509804" d="M 62.5 99 L 61.5 101 L 62.5 99 Z " /><path fill="rgb(0,0,0)" stroke="rgb(0,0,0)" stroke-width="1" opacity="0.615686274509804" d="M 57.5 103 L 57 104.5 L 53 115.5 L 53.5 117 L 52 116.5 L 53 118.5 L 51 118.5 L 50 122.5 L 50.5 124 L 49 123.5 L 50 126.5 L 48 126.5 L 49 129.5 L 48 129.5 L 47.5 128 L 47 130.5 L 47.5 132 L 46 131.5 L 47 134.5 L 45 134.5 L 46 137.5 L 44 137.5 L 45 140.5 L 43 140.5 L 44 143.5 L 42 144 L 43 147.5 L 41 147.5 L 42 150.5 L 40 150.5 L 41 154.5 L 40 154.5 L 39.5 153 L 38.5 156 L 38 152.5 L 40 144.5 L 39 142.5 L 40 142.5 L 40.5 144 L 41 140.5 L 40.5 139 L 42 139.5 L 41 135.5 L 42 135.5 L 42.5 137 L 43 134.5 L 42.5 133 L 44 133.5 L 43 129.5 L 44 129.5 L 44.5 131 L 45 128.5 L 44.5 127 L 46 127.5 L 47 123.5 L 46.5 122 L 48 122.5 L 49 118.5 L 48 116.5 L 49 116.5 L 49.5 118 L 57.5 103 Z " /><path fill="rgb(0,0,0)" stroke="rgb(0,0,0)" stroke-width="1" opacity="0.615686274509804" d="M 63.5 109 L 64 111.5 L 63 111.5 L 63.5 109 Z " /><path fill="rgb(0,0,0)" stroke="rgb(0,0,0)" stroke-width="1" opacity="0.615686274509804" d="M 359.5 114 L 358.5 116 L 359.5 114 Z " /><path fill="rgb(0,0,0)" stroke="rgb(0,0,0)" stroke-width="1" opacity="0.615686274509804" d="M 62.5 115 L 63 118.5 L 62 118.5 L 62.5 115 Z " /><path fill="rgb(0,0,0)" stroke="rgb(0,0,0)" stroke-width="1" opacity="0.615686274509804" d="M 359.5 117 L 361.5 120 L 363 119.5 L 363 121.5 L 363.5 123 L 365 122.5 L 364 124.5 L 366 124.5 Q 364.5 127.5 363 124.5 L 359.5 117 Z " /><path fill="rgb(0,0,0)" stroke="rgb(0,0,0)" stroke-width="1" opacity="0.615686274509804" d="M 366.5 126 L 365.5 128 L 366.5 126 Z " /><path fill="rgb(0,0,0)" stroke="rgb(0,0,0)" stroke-width="1" opacity="0.615686274509804" d="M 368.5 130 L 367.5 132 L 368.5 130 Z " /><path fill="rgb(0,0,0)" stroke="rgb(0,0,0)" stroke-width="1" opacity="0.615686274509804" d="M 32.5 147 L 33 149.5 L 32 149.5 L 32.5 147 Z " /><path fill="rgb(0,0,0)" stroke="rgb(0,0,0)" stroke-width="1" opacity="0.615686274509804" d="M 35.5 158 L 36 160.5 L 35 160.5 L 35.5 158 Z " /><path fill="rgb(0,0,0)" stroke="rgb(0,0,0)" stroke-width="1" opacity="0.615686274509804" d="M 34.5 164 L 35 166.5 L 34 166.5 L 34.5 164 Z " /><path fill="rgb(0,0,0)" stroke="rgb(0,0,0)" stroke-width="1" opacity="0.615686274509804" d="M 380.5 164 L 379 166.5 Q 378.3 168.8 380.5 168 L 382 167.5 L 381 170 Q 378.3 171.1 379 168.5 L 378 166.5 L 380.5 164 Z " /><path fill="rgb(0,0,0)" stroke="rgb(0,0,0)" stroke-width="1" opacity="0.615686274509804" d="M 21.5 167 L 22 169.5 L 21 169.5 L 21.5 167 Z " /><path fill="rgb(0,0,0)" stroke="rgb(0,0,0)" stroke-width="1" opacity="0.615686274509804" d="M 382.5 170 L 383 171.5 L 382 174.5 L 384 174.5 L 383 178 L 385 178.5 L 384 181.5 Q 387.5 183 385 184.5 L 385.5 188 L 387 187.5 L 386 192.5 L 388 195.5 L 387 202 L 389 202.5 L 389 210.5 L 388 213.5 Q 390.8 215.2 389 221.5 Q 386 222.5 387 227.5 L 388 230 Q 384.7 228.7 386 233.5 L 386.5 235 Q 383.9 234.2 385 237.5 L 385.5 239 Q 382.9 238.2 384 241.5 L 384.5 243 L 382 242 L 385 228.5 L 386 208.5 L 385 207.5 L 385 195.5 L 382 180.5 Q 384.5 179 381 177.5 L 380 172.5 L 382.5 170 Z " /><path fill="rgb(0,0,0)" stroke="rgb(0,0,0)" stroke-width="1" opacity="0.615686274509804" d="M 33.5 172 L 34 175.5 L 33 175.5 L 33.5 172 Z " /><path fill="rgb(0,0,0)" stroke="rgb(0,0,0)" stroke-width="1" opacity="0.615686274509804" d="M 26.5 173 L 27 175.5 L 26 175.5 L 26.5 173 Z " /><path fill="rgb(0,0,0)" stroke="rgb(0,0,0)" stroke-width="1" opacity="0.615686274509804" d="M 13.5 174 L 14 178.5 L 13 178.5 L 13.5 174 Z " /><path fill="rgb(0,0,0)" stroke="rgb(0,0,0)" stroke-width="1" opacity="0.615686274509804" d="M 20.5 174 L 21 177.5 L 20 177.5 L 20.5 174 Z " /><path fill="rgb(0,0,0)" stroke="rgb(0,0,0)" stroke-width="1" opacity="0.615686274509804" d="M 367.5 174 L 368 176.5 L 367 176.5 L 367.5 174 Z " /><path fill="rgb(0,0,0)" stroke="rgb(0,0,0)" stroke-width="1" opacity="0.615686274509804" d="M 25.5 180 L 26 182.5 L 25 182.5 L 25.5 180 Z " /><path fill="rgb(0,0,0)" stroke="rgb(0,0,0)" stroke-width="1" opacity="0.615686274509804" d="M 373.5 180 L 375 182.5 L 375 196.5 L 370 223.5 L 365.5 240 L 365 235.5 L 368 223.5 L 371 189.5 L 373.5 180 Z " /><path fill="rgb(0,0,0)" stroke="rgb(0,0,0)" stroke-width="1" opacity="0.615686274509804" d="M 32.5 183 L 34 190.5 L 34 199.5 L 33 200.5 L 33 212 Q 36 210.8 35 214.5 L 34 221 Q 37 219.8 36 223.5 L 35 228 L 37 228.5 L 36 233 Q 38.7 231.9 38 234.5 L 37 238 L 39 238.5 L 38 242 L 40 242.5 L 39 246 L 41 246.5 L 40 249.5 L 42 249.5 L 41 252.5 L 43 252.5 L 42 255.5 L 43.5 259 L 45 258.5 L 44 261.5 L 46 261.5 L 45 264.5 L 46.5 267 L 48 266.5 L 47 269.5 L 49 269.5 L 48 271.5 L 50 271.5 L 49 273.5 L 51 273.5 L 50 275.5 L 52 279.5 L 51 279.5 L 41 258.5 L 37 243.5 L 33 220.5 L 31 195.5 L 32 195.5 L 32.5 198 L 33 190.5 Q 30.2 188.7 32.5 183 Z " /><path fill="rgb(0,0,0)" stroke="rgb(0,0,0)" stroke-width="1" opacity="0.615686274509804" d="M 24.5 189 L 25 195.5 L 24 195.5 L 24.5 189 Z " /><path fill="rgb(0,0,0)" stroke="rgb(0,0,0)" stroke-width="1" opacity="0.615686274509804" d="M 380.5 195 L 381 197.5 L 380 197.5 L 380.5 195 Z " /><path fill="rgb(0,0,0)" stroke="rgb(0,0,0)" stroke-width="1" opacity="0.615686274509804" d="M 378.5 202 L 379 218.5 L 375 232.5 L 370.5 240 L 370 238.5 L 374 226.5 L 377 203.5 L 378.5 202 Z " /><path fill="rgb(0,0,0)" stroke="rgb(0,0,0)" stroke-width="1" opacity="0.615686274509804" d="M 24.5 204 L 25 210.5 L 24 210.5 L 24.5 204 Z " /><path fill="rgb(0,0,0)" stroke="rgb(0,0,0)" stroke-width="1" opacity="0.615686274509804" d="M 366.5 206 L 367 209 Q 364.3 210.1 365 207.5 L 366.5 206 Z " /><path fill="rgb(0,0,0)" stroke="rgb(0,0,0)" stroke-width="1" opacity="0.615686274509804" d="M 365.5 210 L 367 216.5 L 366 216.5 L 366 213 Q 363.3 214.1 364 211.5 L 365.5 210 Z " /><path fill="rgb(0,0,0)" stroke="rgb(0,0,0)" stroke-width="1" opacity="0.615686274509804" d="M 364.5 214 L 365 216 L 363 215.5 L 364.5 214 Z " /><path fill="rgb(0,0,0)" stroke="rgb(0,0,0)" stroke-width="1" opacity="0.615686274509804" d="M 380.5 214 L 381 216.5 L 380 216.5 L 380.5 214 Z " /><path fill="rgb(0,0,0)" stroke="rgb(0,0,0)" stroke-width="1" opacity="0.615686274509804" d="M 363.5 217 L 364 218.5 L 362 219.5 L 363.5 217 Z " /><path fill="rgb(0,0,0)" stroke="rgb(0,0,0)" stroke-width="1" opacity="0.615686274509804" d="M 25.5 218 L 26 221.5 L 25 221.5 L 25.5 218 Z " /><path fill="rgb(0,0,0)" stroke="rgb(0,0,0)" stroke-width="1" opacity="0.615686274509804" d="M 72.5 224 L 85 248.5 L 104 273 Q 106.7 271.9 106 274.5 Q 125.3 293.1 150 305 Q 148.9 307.7 151.5 307 Q 153.3 310.1 155 308.5 Q 154.3 310.8 156.5 310 L 159 310.5 L 159.5 312 L 161 311.5 Q 159.8 314.3 158.5 312 Q 122.9 294.1 97 266.5 L 79 240.5 L 72 225.5 L 72.5 224 Z " /><path fill="rgb(0,0,0)" stroke="rgb(0,0,0)" stroke-width="1" opacity="0.615686274509804" d="M 360.5 226 L 361 228 L 359 227.5 L 360.5 226 Z " /><path fill="rgb(0,0,0)" stroke="rgb(0,0,0)" stroke-width="1" opacity="0.615686274509804" d="M 26.5 227 L 27 230.5 L 26 230.5 L 26.5 227 Z " /><path fill="rgb(0,0,0)" stroke="rgb(0,0,0)" stroke-width="1" opacity="0.615686274509804" d="M 358.5 231 L 358 232.5 L 357.5 234 L 357 232.5 L 358.5 231 Z " /><path fill="rgb(0,0,0)" stroke="rgb(0,0,0)" stroke-width="1" opacity="0.615686274509804" d="M 27.5 234 L 28 236.5 L 27 236.5 L 27.5 234 Z " /><path fill="rgb(0,0,0)" stroke="rgb(0,0,0)" stroke-width="1" opacity="0.615686274509804" d="M 356.5 235 L 356 236.5 Q 356.8 238.8 354.5 238 L 356.5 235 Z " /><path fill="rgb(0,0,0)" stroke="rgb(0,0,0)" stroke-width="1" opacity="0.615686274509804" d="M 353 239 L 355 239.5 L 350.5 246 L 350 244.5 L 353 239 Z " /><path fill="rgb(0,0,0)" stroke="rgb(0,0,0)" stroke-width="1" opacity="0.615686274509804" d="M 348 247 L 350 247.5 L 346.5 252 L 346 250.5 L 348 247 Z " /><path fill="rgb(0,0,0)" stroke="rgb(0,0,0)" stroke-width="1" opacity="0.615686274509804" d="M 344 253 L 346 253.5 L 341.5 259 L 341 257.5 L 344 253 Z " /><path fill="rgb(0,0,0)" stroke="rgb(0,0,0)" stroke-width="1" opacity="0.615686274509804" d="M 339 260 L 341 260.5 L 327.5 279 L 327 277.5 L 339 260 Z " /><path fill="rgb(0,0,0)" stroke="rgb(0,0,0)" stroke-width="1" opacity="0.615686274509804" d="M 375.5 263 L 376.5 265 L 375.5 263 Z " /><path fill="rgb(0,0,0)" stroke="rgb(0,0,0)" stroke-width="1" opacity="0.615686274509804" d="M 372.5 270 L 373.5 272 L 372.5 270 Z " /><path fill="rgb(0,0,0)" stroke="rgb(0,0,0)" stroke-width="1" opacity="0.615686274509804" d="M 370.5 274 L 371.5 276 L 370.5 274 Z " /><path fill="rgb(0,0,0)" stroke="rgb(0,0,0)" stroke-width="1" opacity="0.615686274509804" d="M 325.5 280 L 326 281.5 L 320.5 289 L 320 287.5 L 325.5 280 Z " /><path fill="rgb(0,0,0)" stroke="rgb(0,0,0)" stroke-width="1" opacity="0.615686274509804" d="M 366.5 281 L 367.5 283 L 366.5 281 Z " /><path fill="rgb(0,0,0)" stroke="rgb(0,0,0)" stroke-width="1" opacity="0.615686274509804" d="M 54.5 285 L 58.5 292 L 60 291.5 Q 58.5 294.5 57 291.5 L 54.5 285 Z " /><path fill="rgb(0,0,0)" stroke="rgb(0,0,0)" stroke-width="1" opacity="0.615686274509804" d="M 364.5 285 L 364.5 288 Q 361.5 286.5 364.5 285 Z " /><path fill="rgb(0,0,0)" stroke="rgb(0,0,0)" stroke-width="1" opacity="0.615686274509804" d="M 362.5 288 L 362.5 291 Q 359.5 289.5 362.5 288 Z " /><path fill="rgb(0,0,0)" stroke="rgb(0,0,0)" stroke-width="1" opacity="0.615686274509804" d="M 334.5 289 L 332.5 292 L 334.5 289 Z " /><path fill="rgb(0,0,0)" stroke="rgb(0,0,0)" stroke-width="1" opacity="0.615686274509804" d="M 344.5 289 L 343.5 291 L 344.5 289 Z " /><path fill="rgb(0,0,0)" stroke="rgb(0,0,0)" stroke-width="1" opacity="0.615686274509804" d="M 318 290 L 320 290.5 L 318 291.5 L 318 290 Z " /><path fill="rgb(0,0,0)" stroke="rgb(0,0,0)" stroke-width="1" opacity="0.615686274509804" d="M 360.5 291 L 361 293.5 L 359.5 295 L 359 292.5 L 360.5 291 Z " /><path fill="rgb(0,0,0)" stroke="rgb(0,0,0)" stroke-width="1" opacity="0.615686274509804" d="M 60.5 293 L 59.5 295 L 60.5 293 Z " /><path fill="rgb(0,0,0)" stroke="rgb(0,0,0)" stroke-width="1" opacity="0.615686274509804" d="M 316.5 293 L 317 294.5 L 315 295.5 L 316.5 293 Z " /><path fill="rgb(0,0,0)" stroke="rgb(0,0,0)" stroke-width="1" opacity="0.615686274509804" d="M 61.5 295 L 60.5 297 L 61.5 295 Z " /><path fill="rgb(0,0,0)" stroke="rgb(0,0,0)" stroke-width="1" opacity="0.615686274509804" d="M 339.5 295 L 329.5 306 L 339.5 295 Z " /><path fill="rgb(0,0,0)" stroke="rgb(0,0,0)" stroke-width="1" opacity="0.615686274509804" d="M 357.5 295 L 356.5 299 Q 353 297 357.5 295 Z " /><path fill="rgb(0,0,0)" stroke="rgb(0,0,0)" stroke-width="1" opacity="0.615686274509804" d="M 326.5 296 L 325.5 298 L 326.5 296 Z " /><path fill="rgb(0,0,0)" stroke="rgb(0,0,0)" stroke-width="1" opacity="0.615686274509804" d="M 314.5 297 L 312.5 300 L 311 299.5 L 314.5 297 Z " /><path fill="rgb(0,0,0)" stroke="rgb(0,0,0)" stroke-width="1" opacity="0.615686274509804" d="M 61.5 298 L 64 298.5 L 63 300.5 L 65 300.5 Q 63.5 303.5 62 300.5 L 61.5 298 Z " /><path fill="rgb(0,0,0)" stroke="rgb(0,0,0)" stroke-width="1" opacity="0.615686274509804" d="M 321.5 300 L 320.5 302 L 321.5 300 Z " /><path fill="rgb(0,0,0)" stroke="rgb(0,0,0)" stroke-width="1" opacity="0.615686274509804" d="M 311.5 301 L 310 303.5 L 305 310.5 L 305.5 312 L 304 311.5 L 302.5 314 L 300.5 315 L 298 314.5 L 303.5 309 L 305 309.5 L 308 305.5 Q 305.3 303.8 309.5 302 L 311.5 301 Z " /><path fill="rgb(0,0,0)" stroke="rgb(0,0,0)" stroke-width="1" opacity="0.615686274509804" d="M 352.5 301 L 352.5 304 L 351.5 303 L 340 313.5 L 352.5 301 Z " /><path fill="rgb(0,0,0)" stroke="rgb(0,0,0)" stroke-width="1" opacity="0.615686274509804" d="M 64.5 303 L 67 303.5 Q 64.9 306.8 64.5 303 Z " /><path fill="rgb(0,0,0)" stroke="rgb(0,0,0)" stroke-width="1" opacity="0.615686274509804" d="M 317.5 303 L 316.5 305 L 317.5 303 Z " /><path fill="rgb(0,0,0)" stroke="rgb(0,0,0)" stroke-width="1" opacity="0.615686274509804" d="M 162.5 312 L 161.5 314 L 162.5 312 Z " /><path fill="rgb(0,0,0)" stroke="rgb(0,0,0)" stroke-width="1" opacity="0.615686274509804" d="M 321.5 312 L 316.5 318 L 321.5 312 Z " /><path fill="rgb(0,0,0)" stroke="rgb(0,0,0)" stroke-width="1" opacity="0.615686274509804" d="M 309.5 314 Q 313.9 312.5 313 315.5 L 293.5 336 L 286.5 339 L 273.5 340 L 274.5 338 L 290.5 325 L 309.5 314 Z " /><path fill="rgb(0,0,0)" stroke="rgb(0,0,0)" stroke-width="1" opacity="0.615686274509804" d="M 170.5 316 L 169.5 318 L 170.5 316 Z " /><path fill="rgb(0,0,0)" stroke="rgb(0,0,0)" stroke-width="1" opacity="0.615686274509804" d="M 336.5 316 L 334.5 319 L 336.5 316 Z " /><path fill="rgb(0,0,0)" stroke="rgb(0,0,0)" stroke-width="1" opacity="0.615686274509804" d="M 172.5 317 L 171.5 319 L 172.5 317 Z " /><path fill="rgb(0,0,0)" stroke="rgb(0,0,0)" stroke-width="1" opacity="0.615686274509804" d="M 179.5 319 L 180 321 L 184.5 320 Q 186 323.5 187.5 321 L 200.5 324 L 202.5 326 L 204 325.5 Q 203.2 328.1 206.5 327 L 209 327.5 L 209.5 329 L 211 328.5 L 211.5 330 L 213 329.5 L 213.5 331 L 215 330.5 L 215.5 332 L 217 331.5 L 216.5 333 L 218.5 332 L 219.5 335 L 223 337.5 L 215 339 L 214.5 337 L 211.5 338 L 198.5 334 L 179 324 L 177.5 321 L 176 321.5 L 179.5 319 Z M 189 325 L 191 328 L 202 333 L 209 333 Q 202 325 189 325 Z " /><path fill="rgb(0,0,0)" stroke="rgb(0,0,0)" stroke-width="1" opacity="0.615686274509804" d="M 331.5 320 L 330.5 322 L 331.5 320 Z " /><path fill="rgb(0,0,0)" stroke="rgb(0,0,0)" stroke-width="1" opacity="0.615686274509804" d="M 335.5 320 L 334.5 322 L 335.5 320 Z " /><path fill="rgb(0,0,0)" stroke="rgb(0,0,0)" stroke-width="1" opacity="0.615686274509804" d="M 285.5 325 L 287 325.5 L 281.5 331 L 279.5 331 L 257 339.5 L 268 340.5 L 261.5 345 L 248.5 345 Q 245.5 343.5 248.5 342 L 255 341.5 L 245.5 341 L 243 338.5 L 244.5 339 L 247 338.5 L 246.5 337 L 249.5 338 L 249.5 336 L 252.5 337 L 252.5 335 L 255.5 336 L 255.5 334 L 258.5 335 L 258.5 333 L 261.5 334 L 261.5 332 L 264.5 333 L 264.5 331 L 267.5 332 L 267.5 330 L 270.5 331 L 285.5 325 Z " /><path fill="rgb(0,0,0)" stroke="rgb(0,0,0)" stroke-width="1" opacity="0.615686274509804" d="M 322.5 326 L 322.5 331 L 320.5 330 L 317 332.5 L 317.5 334 L 315.5 333 L 315.5 335 L 313.5 334 L 311 335.5 L 311.5 337 L 309.5 336 L 309.5 338 L 307.5 337 L 307.5 339 L 304.5 338 L 304.5 340 L 301.5 339 L 294.5 341 L 296.5 338 L 300 337.5 L 298 337 L 303.5 330 L 299.5 336 L 302.5 337 L 302.5 335 L 306.5 336 L 306.5 334 L 309.5 335 L 309.5 334 L 308 333.5 L 309.5 333 L 311.5 334 L 311.5 332 L 313.5 333 L 313.5 331 L 315.5 332 L 315.5 330 L 317.5 331 L 317.5 329 L 319.5 330 L 319.5 328 L 321.5 329 L 322.5 326 Z " /><path fill="rgb(0,0,0)" stroke="rgb(0,0,0)" stroke-width="1" opacity="0.615686274509804" d="M 276.5 334 L 275.5 336 L 276.5 334 Z " /><path fill="rgb(0,0,0)" stroke="rgb(0,0,0)" stroke-width="1" opacity="0.615686274509804" d="M 61.5 335 L 62.5 337 L 61.5 335 Z " /><path fill="rgb(0,0,0)" stroke="rgb(0,0,0)" stroke-width="1" opacity="0.615686274509804" d="M 271.5 338 L 270.5 340 L 271.5 338 Z " /><path fill="rgb(0,0,0)" stroke="rgb(0,0,0)" stroke-width="1" opacity="0.615686274509804" d="M 219.5 339 L 229.5 340 L 232 341.5 Q 225.8 340.8 223 343.5 L 226 344.5 L 217 347.5 L 220.5 348 L 229.5 344 L 233.5 344 L 233.5 345 L 209.5 351 L 205.5 350 L 205.5 351 L 208 351.5 L 192.5 355 L 194.5 352 L 208.5 349 L 212.5 350 L 212.5 349 L 210 348.5 L 219 344.5 L 220 340.5 L 219.5 339 Z M 214 348 L 214 349 L 217 349 L 214 348 Z " /><path fill="rgb(0,0,0)" stroke="rgb(0,0,0)" stroke-width="1" opacity="0.615686274509804" d="M 290.5 344 L 287.5 348 L 286.5 347 L 275 358.5 Q 277.7 360.3 273.5 362 Q 272.3 359.8 271 362.5 L 269.5 365 Q 268.3 362.7 267 365.5 L 266.5 367 Q 265.3 364.8 264 367.5 L 263.5 369 L 262 368.5 L 260.5 371 L 259 370.5 L 258.5 372 L 257 371.5 Q 257.8 373.8 255.5 373 Q 253.8 376.1 252 374.5 Q 252.8 376.8 250.5 376 L 248 376.5 L 247.5 378 L 246 377.5 Q 246.8 380.1 243.5 379 L 233.5 384 L 213.5 390 L 198.5 391 L 197.5 392 L 186.5 392 L 185.5 391 L 175.5 391 L 158.5 388 L 152.5 385 L 151.5 386 L 146.5 383 L 143.5 382 L 142 382.5 Q 142.8 380.3 140.5 381 L 139 381.5 L 138.5 380 L 137 380.5 Q 137.8 378.3 135.5 379 L 133.5 378 L 132 378.5 L 132.5 377 L 128.5 375 L 127 375.5 L 127.5 374 L 125.5 375 L 124.5 372 L 122.5 373 L 121.5 369 L 133.5 370 L 134.5 371 L 174 371.5 L 146.5 373 L 145.5 372 L 133 372 L 136.5 377 L 151.5 384 L 171.5 389 Q 176.3 387.8 177.5 390 L 206.5 390 L 220.5 387 L 241.5 379 Q 259.4 370.5 273 359 L 284.5 345 L 288.5 346 L 290.5 344 Z " /><path fill="rgb(0,0,0)" stroke="rgb(0,0,0)" stroke-width="1" opacity="0.615686274509804" d="M 276.5 346 L 280 346.5 L 276.5 347 L 276.5 346 Z " /><path fill="rgb(0,0,0)" stroke="rgb(0,0,0)" stroke-width="1" opacity="0.615686274509804" d="M 256 347 L 258 347.5 L 257.5 349 L 261.5 348 L 261.5 349 Q 244.8 359.3 222.5 364 L 221.5 362 L 224.5 363 L 224.5 361 L 228.5 362 L 228.5 360 L 231.5 361 L 231.5 359 L 234.5 360 L 234.5 358 L 237.5 359 L 240 357.5 L 239.5 356 L 242.5 357 L 245 355.5 L 244.5 354 L 246.5 355 L 246.5 353 L 248.5 354 L 248.5 352 L 250.5 353 L 250.5 351 L 252.5 352 L 252.5 350 L 254.5 351 L 254.5 349 L 256.5 350 L 256 348.5 L 256 347 Z " /><path fill="rgb(0,0,0)" stroke="rgb(0,0,0)" stroke-width="1" opacity="0.615686274509804" d="M 263.5 347 L 271 347.5 L 263.5 348 L 263.5 347 Z " /><path fill="rgb(0,0,0)" stroke="rgb(0,0,0)" stroke-width="1" opacity="0.615686274509804" d="M 118.5 355 L 118.5 357 L 120.5 358 L 122 357.5 Q 120.8 360.3 119.5 358 L 117 356.5 L 118.5 355 Z " /><path fill="rgb(0,0,0)" stroke="rgb(0,0,0)" stroke-width="1" opacity="0.615686274509804" d="M 123.5 358 L 122.5 360 L 123.5 358 Z " /><path fill="rgb(0,0,0)" stroke="rgb(0,0,0)" stroke-width="1" opacity="0.615686274509804" d="M 125.5 359 L 124.5 361 L 125.5 359 Z " /><path fill="rgb(0,0,0)" stroke="rgb(0,0,0)" stroke-width="1" opacity="0.615686274509804" d="M 127.5 360 L 127.5 362 L 129.5 361 L 128.5 363 L 126 361.5 L 127.5 360 Z " /><path fill="rgb(0,0,0)" stroke="rgb(0,0,0)" stroke-width="1" opacity="0.615686274509804" d="M 131.5 362 L 130.5 364 L 131.5 362 Z " /><path fill="rgb(0,0,0)" stroke="rgb(0,0,0)" stroke-width="1" opacity="0.615686274509804" d="M 133.5 363 L 134 365 L 136.5 364 L 136.5 366 L 141.5 367 L 143 366.5 L 142.5 368 L 146.5 367 L 146.5 368 L 145 368.5 L 149 369.5 L 137.5 370 L 137.5 369 L 140 368.5 L 132 364.5 L 133.5 363 Z " /><path fill="rgb(0,0,0)" stroke="rgb(0,0,0)" stroke-width="1" opacity="0.615686274509804" d="M 217.5 363 L 221 364.5 L 218.5 365 L 217.5 363 Z " /><path fill="rgb(0,0,0)" stroke="rgb(0,0,0)" stroke-width="1" opacity="0.615686274509804" d="M 212.5 364 L 217 365.5 L 213.5 366 L 212.5 364 Z " /><path fill="rgb(0,0,0)" stroke="rgb(0,0,0)" stroke-width="1" opacity="0.615686274509804" d="M 207.5 365 L 212 366.5 L 208.5 367 L 207.5 365 Z " /><path fill="rgb(0,0,0)" stroke="rgb(0,0,0)" stroke-width="1" opacity="0.615686274509804" d="M 121.5 366 L 124 366.5 L 121.5 367 L 121.5 366 Z " /><path fill="rgb(0,0,0)" stroke="rgb(0,0,0)" stroke-width="1" opacity="0.615686274509804" d="M 169.5 366 L 174 366.5 L 170 368.5 L 184 370.5 L 177.5 371 L 176.5 370 Q 166.3 371.2 160 368.5 L 169.5 366 Z " /><path fill="rgb(0,0,0)" stroke="rgb(0,0,0)" stroke-width="1" opacity="0.615686274509804" d="M 200.5 366 L 206 367.5 L 202.5 368 L 200.5 366 Z " /><path fill="rgb(0,0,0)" stroke="rgb(0,0,0)" stroke-width="1" opacity="0.615686274509804" d="M 125.5 367 L 128 367.5 L 125.5 368 L 125.5 367 Z " /><path fill="rgb(0,0,0)" stroke="rgb(0,0,0)" stroke-width="1" opacity="0.615686274509804" d="M 194.5 367 L 199 368.5 L 195.5 369 L 194.5 367 Z " /><path fill="rgb(0,0,0)" stroke="rgb(0,0,0)" stroke-width="1" opacity="0.615686274509804" d="M 131.5 368 L 135 368.5 L 131.5 369 L 131.5 368 Z " /><path fill="rgb(0,0,0)" stroke="rgb(0,0,0)" stroke-width="1" opacity="0.615686274509804" d="M 188.5 369 L 192 369.5 L 188.5 370 L 188.5 369 Z " /><path fill="rgb(0,0,0)" stroke="rgb(0,0,0)" stroke-width="1" opacity="0.1568627450980392" d="M 182.5 14 L 185 14.5 L 182.5 15 L 182.5 14 Z " /><path fill="rgb(0,0,0)" stroke="rgb(0,0,0)" stroke-width="1" opacity="0.1568627450980392" d="M 82.5 55 L 81.5 57 L 82.5 55 Z " /><path fill="rgb(0,0,0)" stroke="rgb(0,0,0)" stroke-width="1" opacity="0.1568627450980392" d="M 318.5 67 L 321.5 71 L 318.5 67 Z " /><path fill="rgb(0,0,0)" stroke="rgb(0,0,0)" stroke-width="1" opacity="0.1568627450980392" d="M 85.5 73 L 83.5 76 L 85.5 73 Z " /><path fill="rgb(0,0,0)" stroke="rgb(0,0,0)" stroke-width="1" opacity="0.1568627450980392" d="M 331.5 80 L 332.5 82 L 331.5 80 Z " /><path fill="rgb(0,0,0)" stroke="rgb(0,0,0)" stroke-width="1" opacity="0.1568627450980392" d="M 345.5 95 L 346.5 97 L 345.5 95 Z " /><path fill="rgb(0,0,0)" stroke="rgb(0,0,0)" stroke-width="1" opacity="0.1568627450980392" d="M 54.5 118 L 57 120.5 Q 55.7 125.3 58 126.5 L 59 187.5 L 60 188.5 L 60 200.5 L 64 217.5 L 69 231.5 L 78 248.5 Q 91.1 269.4 108 286.5 L 109 290 Q 111.7 288.9 111 291.5 L 124.5 304 L 144.5 318 L 147 318 Q 145.9 320.7 148.5 320 L 167 331 L 165.5 334 Q 160.8 335.3 159.5 333 L 157.5 334 L 156.5 333 L 129.5 330 L 126.5 331 L 121.5 330 L 116 332.5 L 116.5 334 L 118.5 333 L 118 334.5 Q 117.3 336.8 119.5 336 L 121.5 338 L 133.5 342 L 159.5 346 L 173 351 Q 172.7 357.4 167.5 360 L 153.5 366 L 145.5 367 Q 106 353.5 82 324.5 Q 59 296.5 45 259.5 L 36 224.5 L 35 208.5 L 34 207.5 L 34 183.5 L 43 146.5 L 51 123.5 L 54.5 118 Z " /><path fill="rgb(0,0,0)" stroke="rgb(0,0,0)" stroke-width="1" opacity="0.1568627450980392" d="M 62.5 124 L 63 126.5 L 62 126.5 L 62.5 124 Z " /><path fill="rgb(0,0,0)" stroke="rgb(0,0,0)" stroke-width="1" opacity="0.1568627450980392" d="M 62.5 177 L 63 179.5 L 62 179.5 L 62.5 177 Z " /><path fill="rgb(0,0,0)" stroke="rgb(0,0,0)" stroke-width="1" opacity="0.1568627450980392" d="M 379.5 181 L 383 189.5 L 384 200.5 L 385 201.5 L 385 223.5 L 380 244.5 L 370 265 Q 367 264 368 267 L 364.5 267 L 363 267.5 L 365 258.5 Q 362.5 257 366 255.5 L 378 231.5 L 382 212.5 L 382 199.5 L 381 198.5 L 381 191.5 L 379.5 181 Z " /><path fill="rgb(0,0,0)" stroke="rgb(0,0,0)" stroke-width="1" opacity="0.1568627450980392" d="M 367.5 182 L 368 185.5 L 367 185.5 L 367.5 182 Z " /><path fill="rgb(0,0,0)" stroke="rgb(0,0,0)" stroke-width="1" opacity="0.1568627450980392" d="M 95.5 261 L 96.5 263 L 95.5 261 Z " /><path fill="rgb(0,0,0)" stroke="rgb(0,0,0)" stroke-width="1" opacity="0.1568627450980392" d="M 99.5 266 L 100.5 268 L 99.5 266 Z " /><path fill="rgb(0,0,0)" stroke="rgb(0,0,0)" stroke-width="1" opacity="0.1568627450980392" d="M 109.5 276 L 111.5 279 L 109.5 276 Z " /><path fill="rgb(0,0,0)" stroke="rgb(0,0,0)" stroke-width="1" opacity="0.1568627450980392" d="M 323.5 282 L 322.5 284 L 323.5 282 Z " /><path fill="rgb(0,0,0)" stroke="rgb(0,0,0)" stroke-width="1" opacity="0.1568627450980392" d="M 120.5 285 L 121.5 287 L 120.5 285 Z " /><path fill="rgb(0,0,0)" stroke="rgb(0,0,0)" stroke-width="1" opacity="0.1568627450980392" d="M 124.5 288 L 125.5 290 L 124.5 288 Z " /><path fill="rgb(0,0,0)" stroke="rgb(0,0,0)" stroke-width="1" opacity="0.1568627450980392" d="M 362.5 291 L 361.5 293 L 362.5 291 Z " /><path fill="rgb(0,0,0)" stroke="rgb(0,0,0)" stroke-width="1" opacity="0.1568627450980392" d="M 351.5 305 L 349.5 308 L 351.5 305 Z " /><path fill="rgb(0,0,0)" stroke="rgb(0,0,0)" stroke-width="1" opacity="0.1568627450980392" d="M 303.5 308 L 302.5 310 L 303.5 308 Z " /><path fill="rgb(0,0,0)" stroke="rgb(0,0,0)" stroke-width="1" opacity="0.1568627450980392" d="M 337.5 319 L 335.5 322 L 337.5 319 Z " /><path fill="rgb(0,0,0)" stroke="rgb(0,0,0)" stroke-width="1" opacity="0.1568627450980392" d="M 62.5 337 L 64.5 340 L 62.5 337 Z " /><path fill="rgb(0,0,0)" stroke="rgb(0,0,0)" stroke-width="1" opacity="0.1568627450980392" d="M 243.5 347 Q 250.9 346.1 255 348.5 Q 232 362 199.5 366 L 199.5 365 L 205.5 364 L 220.5 356 L 243.5 347 Z " /><path fill="rgb(0,0,0)" stroke="rgb(0,0,0)" stroke-width="1" opacity="0.1568627450980392" d="M 288.5 347 L 283.5 353 L 288.5 347 Z " /><path fill="rgb(0,0,0)" stroke="rgb(0,0,0)" stroke-width="1" opacity="0.1568627450980392" d="M 278.5 357 L 277.5 359 L 278.5 357 Z " /><path fill="rgb(0,0,0)" stroke="rgb(0,0,0)" stroke-width="1" opacity="0.2549019607843137" d="M 75.5 61 L 74.5 63 L 75.5 61 Z " /><path fill="rgb(0,0,0)" stroke="rgb(0,0,0)" stroke-width="1" opacity="0.2549019607843137" d="M 313.5 63 L 314.5 65 L 313.5 63 Z " /><path fill="rgb(0,0,0)" stroke="rgb(0,0,0)" stroke-width="1" opacity="0.2549019607843137" d="M 67.5 68 L 66.5 70 L 67.5 68 Z " /><path fill="rgb(0,0,0)" stroke="rgb(0,0,0)" stroke-width="1" opacity="0.2549019607843137" d="M 322.5 71 L 324.5 74 L 322.5 71 Z " /><path fill="rgb(0,0,0)" stroke="rgb(0,0,0)" stroke-width="1" opacity="0.2549019607843137" d="M 328.5 77 L 330.5 80 L 328.5 77 Z " /><path fill="rgb(0,0,0)" stroke="rgb(0,0,0)" stroke-width="1" opacity="0.2549019607843137" d="M 317.5 80 L 318.5 82 L 317.5 80 Z " /><path fill="rgb(0,0,0)" stroke="rgb(0,0,0)" stroke-width="1" opacity="0.2549019607843137" d="M 62.5 100 L 63 104.5 L 62 105.5 L 61 127.5 L 60 128.5 L 60 170.5 L 61 171.5 L 61 182.5 L 62 183.5 L 62 190.5 L 65 206.5 L 74 233.5 Q 88.6 263.4 112.5 284 L 142.5 307 L 165.5 318 L 173.5 320 L 185.5 328 L 206.5 337 L 213 341.5 L 209.5 346 L 189.5 351 L 170.5 364 L 157.5 368 L 148.5 368 L 149.5 366 Q 164.9 364.9 172 355.5 L 173 351 L 159.5 346 L 133.5 342 L 118 336 L 119 333.5 L 117.5 333 L 116 333.5 L 117.5 331 L 124.5 330 L 126.5 331 L 129.5 330 L 158.5 334 L 160.5 334 Q 165.8 335.3 167 332.5 Q 167.8 330.3 165.5 331 Q 157.8 323.3 147 320 Q 148.3 317 144.5 318 L 124.5 304 L 111 291.5 L 109 288.5 Q 91.8 270.2 78 248.5 L 69 231.5 L 64 217.5 L 61 206.5 L 60 188.5 L 59 187.5 L 58 126.5 Q 55.7 125.3 57 120.5 L 54.5 118 L 53 118.5 L 62.5 100 Z " /><path fill="rgb(0,0,0)" stroke="rgb(0,0,0)" stroke-width="1" opacity="0.2549019607843137" d="M 61.5 137 L 62 169.5 L 61 169.5 L 61.5 137 Z " /><path fill="rgb(0,0,0)" stroke="rgb(0,0,0)" stroke-width="1" opacity="0.2549019607843137" d="M 379.5 171 L 383 188.5 L 382 188.5 L 380.5 184 L 379 184.5 L 380 181.5 L 378 178.5 L 379.5 171 Z " /><path fill="rgb(0,0,0)" stroke="rgb(0,0,0)" stroke-width="1" opacity="0.2549019607843137" d="M 367.5 179 L 368 181.5 L 367 181.5 L 367.5 179 Z " /><path fill="rgb(0,0,0)" stroke="rgb(0,0,0)" stroke-width="1" opacity="0.2549019607843137" d="M 383.5 191 L 384 193.5 L 383 193.5 L 383.5 191 Z " /><path fill="rgb(0,0,0)" stroke="rgb(0,0,0)" stroke-width="1" opacity="0.2549019607843137" d="M 384.5 198 L 385 200.5 L 384 200.5 L 384.5 198 Z " /><path fill="rgb(0,0,0)" stroke="rgb(0,0,0)" stroke-width="1" opacity="0.2549019607843137" d="M 381.5 199 L 382 212.5 L 381 212.5 L 381.5 199 Z " /><path fill="rgb(0,0,0)" stroke="rgb(0,0,0)" stroke-width="1" opacity="0.2549019607843137" d="M 13.5 207 L 14 209.5 L 13 209.5 L 13.5 207 Z " /><path fill="rgb(0,0,0)" stroke="rgb(0,0,0)" stroke-width="1" opacity="0.2549019607843137" d="M 364.5 222 L 365 225.5 Q 356.3 272.3 325.5 297 L 313.5 306 L 315 303.5 L 325 283.5 L 355 241.5 L 364.5 222 Z " /><path fill="rgb(0,0,0)" stroke="rgb(0,0,0)" stroke-width="1" opacity="0.2549019607843137" d="M 384.5 224 L 385 226.5 L 384 226.5 L 384.5 224 Z " /><path fill="rgb(0,0,0)" stroke="rgb(0,0,0)" stroke-width="1" opacity="0.2549019607843137" d="M 383.5 230 L 384 232.5 L 383 232.5 L 383.5 230 Z " /><path fill="rgb(0,0,0)" stroke="rgb(0,0,0)" stroke-width="1" opacity="0.2549019607843137" d="M 382.5 235 L 383 237.5 L 382 237.5 L 382.5 235 Z " /><path fill="rgb(0,0,0)" stroke="rgb(0,0,0)" stroke-width="1" opacity="0.2549019607843137" d="M 381.5 239 L 382 241.5 Q 371.5 284.5 343.5 310 Q 330.3 323.5 312 331 L 312 329.5 L 339 300.5 L 351 281.5 L 363 258 L 365 258.5 L 364 259.5 L 364 267 L 368 267 L 368 265 Q 370.7 266.1 370 263.5 Q 377.8 253.3 381.5 239 Z " /><path fill="rgb(0,0,0)" stroke="rgb(0,0,0)" stroke-width="1" opacity="0.2549019607843137" d="M 112.5 279 L 113.5 281 L 112.5 279 Z " /><path fill="rgb(0,0,0)" stroke="rgb(0,0,0)" stroke-width="1" opacity="0.2549019607843137" d="M 310.5 300 L 309.5 302 L 310.5 300 Z " /><path fill="rgb(0,0,0)" stroke="rgb(0,0,0)" stroke-width="1" opacity="0.2549019607843137" d="M 355.5 300 L 354.5 302 L 355.5 300 Z " /><path fill="rgb(0,0,0)" stroke="rgb(0,0,0)" stroke-width="1" opacity="0.2549019607843137" d="M 67.5 304 L 68.5 306 L 67.5 304 Z " /><path fill="rgb(0,0,0)" stroke="rgb(0,0,0)" stroke-width="1" opacity="0.2549019607843137" d="M 330.5 305 L 328 308.5 L 315.5 322 L 308.5 327 L 309 325.5 Q 308.3 323.3 310.5 324 L 330.5 305 Z " /><path fill="rgb(0,0,0)" stroke="rgb(0,0,0)" stroke-width="1" opacity="0.2549019607843137" d="M 305.5 306 L 304.5 308 L 305.5 306 Z " /><path fill="rgb(0,0,0)" stroke="rgb(0,0,0)" stroke-width="1" opacity="0.2549019607843137" d="M 348.5 308 L 347.5 310 L 348.5 308 Z " /><path fill="rgb(0,0,0)" stroke="rgb(0,0,0)" stroke-width="1" opacity="0.2549019607843137" d="M 341.5 315 L 338.5 319 L 341.5 315 Z " /><path fill="rgb(0,0,0)" stroke="rgb(0,0,0)" stroke-width="1" opacity="0.2549019607843137" d="M 80.5 322 L 81.5 324 L 80.5 322 Z " /><path fill="rgb(0,0,0)" stroke="rgb(0,0,0)" stroke-width="1" opacity="0.2549019607843137" d="M 97.5 339 L 99.5 342 L 97.5 339 Z " /><path fill="rgb(0,0,0)" stroke="rgb(0,0,0)" stroke-width="1" opacity="0.2549019607843137" d="M 65.5 340 L 69.5 345 L 65.5 340 Z " /><path fill="rgb(0,0,0)" stroke="rgb(0,0,0)" stroke-width="1" opacity="0.2549019607843137" d="M 103.5 344 L 104.5 346 L 103.5 344 Z " /><path fill="rgb(0,0,0)" stroke="rgb(0,0,0)" stroke-width="1" opacity="0.2549019607843137" d="M 236.5 346 L 244 346.5 L 240.5 349 L 220.5 356 L 205.5 364 L 199 365 Q 200.1 368.5 192.5 367 L 191.5 368 L 176.5 369 L 176.5 368 L 181.5 367 L 205.5 354 L 236.5 346 Z " /><path fill="rgb(0,0,0)" stroke="rgb(0,0,0)" stroke-width="1" opacity="0.2549019607843137" d="M 251.5 347 L 254 347.5 L 251.5 348 L 251.5 347 Z " /><path fill="rgb(0,0,0)" stroke="rgb(0,0,0)" stroke-width="1" opacity="0.2549019607843137" d="M 282.5 353 L 281.5 355 L 282.5 353 Z " /><path fill="rgb(0,0,0)" stroke="rgb(0,0,0)" stroke-width="1" opacity="0.2549019607843137" d="M 240.5 366 L 242.5 366 L 246 368.5 L 243.5 372 L 236.5 377 L 217.5 385 L 201.5 388 L 186.5 388 L 185.5 387 L 174.5 386 L 166.5 383 L 164 380.5 L 168.5 377 L 170.5 377 L 182.5 374 L 188.5 374 L 195.5 372 L 216.5 370 L 231.5 367 L 239.5 367 L 240.5 366 Z " /><path fill="rgb(0,0,0)" stroke="rgb(0,0,0)" stroke-width="1" opacity="0.403921568627451" d="M 187.5 14 L 192 14.5 L 187.5 15 L 187.5 14 Z " /><path fill="rgb(0,0,0)" stroke="rgb(0,0,0)" stroke-width="1" opacity="0.403921568627451" d="M 199.5 14 L 204 14.5 L 199.5 15 L 199.5 14 Z " /><path fill="rgb(0,0,0)" stroke="rgb(0,0,0)" stroke-width="1" opacity="0.403921568627451" d="M 178.5 17 L 204.5 17 L 211 18.5 L 184.5 20 L 183.5 21 L 148.5 26 L 130.5 31 L 121.5 35 L 121.5 34 L 145.5 24 L 178.5 17 Z " /><path fill="rgb(0,0,0)" stroke="rgb(0,0,0)" stroke-width="1" opacity="0.403921568627451" d="M 161.5 31 L 187.5 31 L 188.5 32 L 205.5 32 L 206.5 33 L 216.5 33 L 225 34.5 L 214.5 35 L 213.5 34 L 189.5 34 L 188.5 35 L 173.5 35 L 172.5 36 L 154.5 37 L 137.5 40 L 119.5 45 L 119.5 44 L 141.5 34 L 151.5 32 L 160.5 32 L 161.5 31 Z " /><path fill="rgb(0,0,0)" stroke="rgb(0,0,0)" stroke-width="1" opacity="0.403921568627451" d="M 119.5 35 L 118.5 37 L 112.5 40 L 113.5 38 L 119.5 35 Z " /><path fill="rgb(0,0,0)" stroke="rgb(0,0,0)" stroke-width="1" opacity="0.403921568627451" d="M 80.5 57 L 79.5 59 L 80.5 57 Z " /><path fill="rgb(0,0,0)" stroke="rgb(0,0,0)" stroke-width="1" opacity="0.403921568627451" d="M 73.5 63 L 72.5 65 L 73.5 63 Z " /><path fill="rgb(0,0,0)" stroke="rgb(0,0,0)" stroke-width="1" opacity="0.403921568627451" d="M 80.5 77 L 76.5 82 L 80.5 77 Z " /><path fill="rgb(0,0,0)" stroke="rgb(0,0,0)" stroke-width="1" opacity="0.403921568627451" d="M 319.5 82 L 320.5 84 L 319.5 82 Z " /><path fill="rgb(0,0,0)" stroke="rgb(0,0,0)" stroke-width="1" opacity="0.403921568627451" d="M 50.5 84 L 49.5 86 L 50.5 84 Z " /><path fill="rgb(0,0,0)" stroke="rgb(0,0,0)" stroke-width="1" opacity="0.403921568627451" d="M 46.5 89 L 45.5 91 L 46.5 89 Z " /><path fill="rgb(0,0,0)" stroke="rgb(0,0,0)" stroke-width="1" opacity="0.403921568627451" d="M 340.5 90 L 343.5 94 L 340.5 90 Z " /><path fill="rgb(0,0,0)" stroke="rgb(0,0,0)" stroke-width="1" opacity="0.403921568627451" d="M 67.5 93 L 67 94.5 L 65 103.5 L 65.5 105 L 64 104.5 L 65 108.5 L 63 109 L 64 115 Q 60.7 113.7 62 118.5 L 63 121.5 L 62 122.5 L 62 136.5 L 61 137.5 L 61 169.5 L 62 170.5 L 63 188.5 L 65 195.5 L 63 196.5 L 62 183.5 L 61 182.5 L 61 171.5 L 60 170.5 L 60 128.5 L 61 127.5 L 61 114.5 L 62 113.5 L 63 98.5 L 67.5 93 Z " /><path fill="rgb(0,0,0)" stroke="rgb(0,0,0)" stroke-width="1" opacity="0.403921568627451" d="M 348.5 99 L 349.5 101 L 348.5 99 Z " /><path fill="rgb(0,0,0)" stroke="rgb(0,0,0)" stroke-width="1" opacity="0.403921568627451" d="M 42.5 105 L 42 106.5 Q 32.5 123.5 26 143.5 L 23 155.5 L 19.5 181 L 18 177.5 L 18 157.5 Q 23.9 124.9 42.5 105 Z " /><path fill="rgb(0,0,0)" stroke="rgb(0,0,0)" stroke-width="1" opacity="0.403921568627451" d="M 51.5 108 L 52 109.5 L 43 129.5 L 37 149.5 L 33 172.5 L 33 182.5 L 32 183.5 L 31 198.5 L 32 199.5 L 32 212.5 L 33 213.5 L 34 227.5 L 41 258.5 Q 56.3 295.8 79 325.5 L 77.5 326 Q 64.4 320.1 56 309.5 Q 45.7 298.8 39 284.5 L 36 273.5 L 36 264.5 L 36 262.5 L 36 257.5 L 27 233.5 L 24 196.5 L 25 195.5 L 25 183.5 L 26 182.5 L 27 170.5 L 33 146.5 Q 38.5 138.5 41 127.5 L 51.5 108 Z " /><path fill="rgb(0,0,0)" stroke="rgb(0,0,0)" stroke-width="1" opacity="0.403921568627451" d="M 378.5 168 L 380 170.5 L 378.5 178 L 378.5 168 Z " /><path fill="rgb(0,0,0)" stroke="rgb(0,0,0)" stroke-width="1" opacity="0.403921568627451" d="M 383.5 188 L 384 190.5 L 383 190.5 L 383.5 188 Z " /><path fill="rgb(0,0,0)" stroke="rgb(0,0,0)" stroke-width="1" opacity="0.403921568627451" d="M 380.5 192 L 381 194.5 L 380 194.5 L 380.5 192 Z " /><path fill="rgb(0,0,0)" stroke="rgb(0,0,0)" stroke-width="1" opacity="0.403921568627451" d="M 384.5 195 L 385 197.5 L 384 197.5 L 384.5 195 Z " /><path fill="rgb(0,0,0)" stroke="rgb(0,0,0)" stroke-width="1" opacity="0.403921568627451" d="M 64.5 198 L 66 200.5 L 64 201.5 L 64.5 198 Z " /><path fill="rgb(0,0,0)" stroke="rgb(0,0,0)" stroke-width="1" opacity="0.403921568627451" d="M 13.5 203 L 14 206.5 L 13 206.5 L 13.5 203 Z " /><path fill="rgb(0,0,0)" stroke="rgb(0,0,0)" stroke-width="1" opacity="0.403921568627451" d="M 65 203 Q 67.7 201.9 67 204.5 L 66 207 Q 68.7 205.9 68 208.5 L 67 211 L 69 211.5 L 68 214 L 70 214.5 L 69 217 L 71 217.5 L 70 220 L 72 220.5 L 71 223 L 73 223.5 L 72 225.5 L 74 225.5 L 73 227.5 L 74.5 231 L 76 230.5 L 75 232.5 L 77 232.5 L 76 234.5 L 78 234.5 L 77 236.5 L 79 236.5 L 78 238.5 L 81.5 244 L 83 243.5 L 82 245.5 L 85 246.5 L 84 248.5 L 86 248.5 L 85 250.5 L 89.5 256 L 91 255.5 L 90 257.5 Q 92 261.2 94 259.5 L 93 261.5 Q 95.5 266.3 98 264.5 L 97 266.5 L 103.5 273 L 105 272.5 Q 102.8 273.8 105.5 275 Q 106.8 272.8 108 275.5 L 107 276.5 L 111.5 281 L 117.5 285 Q 118.8 282.8 120 285.5 Q 117.8 286.8 120.5 288 L 122.5 289 L 124 288.5 Q 121.8 289.8 124.5 291 L 126.5 290 Q 124.8 292 128.5 294 L 130.5 293 L 131.5 296 Q 150.1 309.9 173 319.5 L 171.5 320 L 149.5 311 L 139.5 305 L 112.5 284 L 96 267.5 Q 83.1 252.4 74 233.5 L 67 214.5 L 65 203 Z " /><path fill="rgb(0,0,0)" stroke="rgb(0,0,0)" stroke-width="1" opacity="0.403921568627451" d="M 385.5 208 L 386 216.5 L 385 216.5 L 385.5 208 Z " /><path fill="rgb(0,0,0)" stroke="rgb(0,0,0)" stroke-width="1" opacity="0.403921568627451" d="M 34.5 209 L 35 211.5 L 34 211.5 L 34.5 209 Z " /><path fill="rgb(0,0,0)" stroke="rgb(0,0,0)" stroke-width="1" opacity="0.403921568627451" d="M 366.5 209 L 367 212.5 L 365 219.5 L 366 222 Q 363.3 220.9 364 223.5 Q 357.5 240.5 346.5 253 L 348 250.5 L 352 243.5 L 351.5 242 L 353 242.5 L 356 236.5 L 355.5 235 L 357 235.5 L 356 233.5 L 358 233.5 L 357 231.5 L 359 231.5 L 361 225.5 L 360.5 224 L 362 224.5 L 361 221.5 L 363 221.5 L 362 218.5 L 364 218.5 L 366.5 209 Z " /><path fill="rgb(0,0,0)" stroke="rgb(0,0,0)" stroke-width="1" opacity="0.403921568627451" d="M 388.5 222 L 389 224.5 L 388 224.5 L 388.5 222 Z " /><path fill="rgb(0,0,0)" stroke="rgb(0,0,0)" stroke-width="1" opacity="0.403921568627451" d="M 343.5 254 L 346 254.5 L 341.5 260 L 343 257.5 L 344 255.5 L 343.5 254 Z " /><path fill="rgb(0,0,0)" stroke="rgb(0,0,0)" stroke-width="1" opacity="0.403921568627451" d="M 364.5 256 L 363.5 258 L 364.5 256 Z " /><path fill="rgb(0,0,0)" stroke="rgb(0,0,0)" stroke-width="1" opacity="0.403921568627451" d="M 338.5 261 L 341 261.5 L 338 263.5 L 338.5 261 Z " /><path fill="rgb(0,0,0)" stroke="rgb(0,0,0)" stroke-width="1" opacity="0.403921568627451" d="M 360.5 262 L 359.5 264 L 360.5 262 Z " /><path fill="rgb(0,0,0)" stroke="rgb(0,0,0)" stroke-width="1" opacity="0.403921568627451" d="M 335.5 265 L 338 265.5 L 333.5 271 L 333.5 268 L 335 268.5 L 336 266.5 L 335.5 265 Z " /><path fill="rgb(0,0,0)" stroke="rgb(0,0,0)" stroke-width="1" opacity="0.403921568627451" d="M 351.5 265 L 350.5 267 L 351.5 265 Z " /><path fill="rgb(0,0,0)" stroke="rgb(0,0,0)" stroke-width="1" opacity="0.403921568627451" d="M 348.5 270 L 348 271.5 L 346.5 274 L 347 272.5 L 348.5 270 Z " /><path fill="rgb(0,0,0)" stroke="rgb(0,0,0)" stroke-width="1" opacity="0.403921568627451" d="M 332.5 272 L 331 274.5 L 320 291.5 L 315 303.5 L 317 303.5 Q 315 307.2 313 305.5 L 311.5 308 L 304.5 312 L 307 308.5 L 315 296.5 L 314.5 295 Q 315.8 297.2 317 294.5 L 318 292.5 L 317.5 291 Q 318.8 293.3 320 290.5 L 319 288.5 L 322 287.5 L 323 285.5 L 322.5 284 L 324 284.5 L 325 282.5 L 324.5 281 L 326 281.5 L 327 279.5 L 326.5 278 L 328 278.5 L 329 276.5 L 328.5 275 L 330 275.5 L 332.5 272 Z " /><path fill="rgb(0,0,0)" stroke="rgb(0,0,0)" stroke-width="1" opacity="0.403921568627451" d="M 345.5 275 L 344.5 277 L 345.5 275 Z " /><path fill="rgb(0,0,0)" stroke="rgb(0,0,0)" stroke-width="1" opacity="0.403921568627451" d="M 343.5 278 L 341.5 281 L 343.5 278 Z " /><path fill="rgb(0,0,0)" stroke="rgb(0,0,0)" stroke-width="1" opacity="0.403921568627451" d="M 367.5 279 L 366.5 281 L 367.5 279 Z " /><path fill="rgb(0,0,0)" stroke="rgb(0,0,0)" stroke-width="1" opacity="0.403921568627451" d="M 350.5 281 L 349.5 283 L 350.5 281 Z " /><path fill="rgb(0,0,0)" stroke="rgb(0,0,0)" stroke-width="1" opacity="0.403921568627451" d="M 340.5 282 L 327.5 296 L 340.5 282 Z " /><path fill="rgb(0,0,0)" stroke="rgb(0,0,0)" stroke-width="1" opacity="0.403921568627451" d="M 348.5 284 L 348 285.5 L 339 300.5 L 312 330.5 L 312.5 332 L 299.5 336 L 304 330.5 L 308.5 325 L 310.5 325 Q 321.3 319.3 328 309.5 L 327.5 308 L 323 311.5 L 328.5 306 Q 329.8 308.2 331 305.5 L 348.5 284 Z " /><path fill="rgb(0,0,0)" stroke="rgb(0,0,0)" stroke-width="1" opacity="0.403921568627451" d="M 364.5 284 L 363.5 286 L 364.5 284 Z " /><path fill="rgb(0,0,0)" stroke="rgb(0,0,0)" stroke-width="1" opacity="0.403921568627451" d="M 362.5 287 L 361.5 289 L 362.5 287 Z " /><path fill="rgb(0,0,0)" stroke="rgb(0,0,0)" stroke-width="1" opacity="0.403921568627451" d="M 360.5 290 L 359.5 292 L 360.5 290 Z " /><path fill="rgb(0,0,0)" stroke="rgb(0,0,0)" stroke-width="1" opacity="0.403921568627451" d="M 358.5 293 L 355.5 297 L 358.5 293 Z " /><path fill="rgb(0,0,0)" stroke="rgb(0,0,0)" stroke-width="1" opacity="0.403921568627451" d="M 324.5 297 L 322.5 300 L 324.5 297 Z " /><path fill="rgb(0,0,0)" stroke="rgb(0,0,0)" stroke-width="1" opacity="0.403921568627451" d="M 354.5 298 L 350.5 303 L 354.5 298 Z " /><path fill="rgb(0,0,0)" stroke="rgb(0,0,0)" stroke-width="1" opacity="0.403921568627451" d="M 319.5 301 L 318.5 303 L 319.5 301 Z " /><path fill="rgb(0,0,0)" stroke="rgb(0,0,0)" stroke-width="1" opacity="0.403921568627451" d="M 342.5 310 L 337.5 316 L 342.5 310 Z " /><path fill="rgb(0,0,0)" stroke="rgb(0,0,0)" stroke-width="1" opacity="0.403921568627451" d="M 346.5 310 L 342.5 315 L 346.5 310 Z " /><path fill="rgb(0,0,0)" stroke="rgb(0,0,0)" stroke-width="1" opacity="0.403921568627451" d="M 75.5 316 L 76.5 318 L 75.5 316 Z " /><path fill="rgb(0,0,0)" stroke="rgb(0,0,0)" stroke-width="1" opacity="0.403921568627451" d="M 335.5 316 L 332.5 320 L 335.5 316 Z " /><path fill="rgb(0,0,0)" stroke="rgb(0,0,0)" stroke-width="1" opacity="0.403921568627451" d="M 315.5 318 L 310.5 324 L 315.5 318 Z " /><path fill="rgb(0,0,0)" stroke="rgb(0,0,0)" stroke-width="1" opacity="0.403921568627451" d="M 60 320 L 71.5 328 L 93 348.5 L 96 354 Q 77.3 349.6 67 335.5 Q 60.8 329.6 60 320 Z " /><path fill="rgb(0,0,0)" stroke="rgb(0,0,0)" stroke-width="1" opacity="0.403921568627451" d="M 329.5 321 L 328.5 323 L 329.5 321 Z " /><path fill="rgb(0,0,0)" stroke="rgb(0,0,0)" stroke-width="1" opacity="0.403921568627451" d="M 177.5 322 L 178.5 324 L 177.5 322 Z " /><path fill="rgb(0,0,0)" stroke="rgb(0,0,0)" stroke-width="1" opacity="0.403921568627451" d="M 333.5 322 L 332.5 324 L 333.5 322 Z " /><path fill="rgb(0,0,0)" stroke="rgb(0,0,0)" stroke-width="1" opacity="0.403921568627451" d="M 326.5 323 L 325.5 325 L 326.5 323 Z " /><path fill="rgb(0,0,0)" stroke="rgb(0,0,0)" stroke-width="1" opacity="0.403921568627451" d="M 188.5 325 Q 202.3 325.3 209 332.5 L 201.5 333 L 190.5 328 L 188.5 325 Z " /><path fill="rgb(0,0,0)" stroke="rgb(0,0,0)" stroke-width="1" opacity="0.403921568627451" d="M 85.5 328 L 91.5 335 L 85.5 328 Z " /><path fill="rgb(0,0,0)" stroke="rgb(0,0,0)" stroke-width="1" opacity="0.403921568627451" d="M 280.5 330 L 277.5 334 L 269.5 340 L 257.5 340 L 257.5 339 L 280.5 330 Z " /><path fill="rgb(0,0,0)" stroke="rgb(0,0,0)" stroke-width="1" opacity="0.403921568627451" d="M 202.5 335 L 218.5 339 L 220 340.5 L 217.5 346 L 209.5 349 L 197.5 351 L 192 354.5 L 194.5 355 L 224.5 348 L 232.5 345 L 237.5 345 L 237.5 346 L 205.5 354 L 181.5 367 L 175.5 369 L 170.5 369 L 170.5 368 L 174 366.5 L 169.5 366 L 159.5 369 L 153.5 369 L 153.5 368 L 157.5 368 L 170.5 364 Q 180.6 359.6 187.5 352 L 207.5 347 L 213 342.5 L 210.5 339 L 202.5 336 L 202.5 335 Z " /><path fill="rgb(0,0,0)" stroke="rgb(0,0,0)" stroke-width="1" opacity="0.403921568627451" d="M 98.5 344 Q 116.5 359 140 368.5 L 135.5 369 L 120.5 366 L 109 359 L 98.5 344 Z " /><path fill="rgb(0,0,0)" stroke="rgb(0,0,0)" stroke-width="1" opacity="0.403921568627451" d="M 244.5 346 L 247 346.5 L 244.5 347 L 244.5 346 Z " /><path fill="rgb(0,0,0)" stroke="rgb(0,0,0)" stroke-width="1" opacity="0.403921568627451" d="M 280.5 346 L 283 346.5 L 273 359 Q 251.5 377.3 220.5 387 L 206.5 390 L 177.5 390 L 151.5 384 L 136.5 377 L 133 373.5 L 133.5 372 L 145.5 372 L 146.5 373 L 157.5 373 L 158.5 372 L 183.5 371 L 184.5 370 L 191.5 370 L 192.5 369 L 216.5 366 Q 242.9 360.4 262.5 348 L 270.5 348 L 280.5 346 Z M 241 366 L 240 367 L 232 367 L 217 370 L 196 372 L 189 374 L 183 374 L 171 377 L 169 377 L 164 381 L 167 383 L 175 386 L 186 387 L 187 388 L 202 388 L 218 385 L 237 377 L 244 372 L 246 369 L 243 366 L 241 366 Z " /><path fill="rgb(0,0,0)" stroke="rgb(0,0,0)" stroke-width="1" opacity="0.403921568627451" d="M 181.5 368 L 185 368.5 L 181.5 369 L 181.5 368 Z " /><path fill="rgb(0,0,0)" stroke="rgb(0,0,0)" stroke-width="1" opacity="0.403921568627451" d="M 182.5 391 L 186 391.5 L 182.5 392 L 182.5 391 Z " /><path fill="rgb(0,0,0)" stroke="rgb(0,0,0)" stroke-width="1" opacity="0.403921568627451" d="M 198.5 391 L 201 391.5 L 198.5 392 L 198.5 391 Z " /></svg>